<svg width="30" height="30" viewBox="0 0 30 30" fill="none" xmlns="http://www.w3.org/2000/svg">
<path d="M21.5013 10.2606C21.2014 10.0163 21.0156 9.63243 21.1157 9.25879C21.2158 8.88514 21.5686 8.64558 21.9505 8.58393C23.0896 8.40003 24.0714 7.56849 24.3894 6.38181C24.8213 4.76975 23.8646 3.11275 22.2526 2.6808C20.6405 2.24885 18.9835 3.20552 18.5516 4.81758C18.2336 6.00426 18.6681 7.2153 19.5626 7.94409C19.8625 8.18842 20.0483 8.5723 19.9481 8.94594C19.848 9.31959 19.4952 9.55915 19.1133 9.6208C17.9743 9.8047 16.9925 10.6362 16.6745 11.8229C16.2425 13.435 17.1992 15.092 18.8113 15.5239C20.4233 15.9559 22.0803 14.9992 22.5123 13.3872C22.8303 12.2005 22.3957 10.9894 21.5013 10.2606Z" fill="white"/>
<path d="M7.92709 10.7587C8.17143 10.4588 8.55529 10.2731 8.92895 10.3732C9.30261 10.4733 9.54216 10.8261 9.60382 11.208C9.7877 12.3471 10.6192 13.3289 11.8059 13.6469C13.418 14.0788 15.075 13.1221 15.5069 11.5101C15.9389 9.89801 14.9822 8.24102 13.3702 7.80907C12.1835 7.49109 10.9724 7.9256 10.2437 8.82011C9.99931 9.12 9.61546 9.30577 9.2418 9.20564C8.86813 9.10552 8.62859 8.75272 8.56693 8.37083C8.38305 7.23178 7.55151 6.24996 6.36482 5.93199C4.75276 5.50004 3.09576 6.45671 2.66381 8.06877C2.23186 9.68083 3.18853 11.3378 4.80058 11.7698C5.98728 12.0878 7.19832 11.6532 7.92709 10.7587Z" fill="white"/>
<path d="M10.3562 21.3924C10.2561 21.766 10.4419 22.1499 10.7418 22.3943C11.6362 23.123 12.0708 24.3341 11.7528 25.5208C11.3208 27.1328 9.66383 28.0895 8.05178 27.6575C6.43972 27.2256 5.48305 25.5686 5.915 23.9565C6.23297 22.7699 7.21479 21.9383 8.35383 21.7544C8.73571 21.6928 9.08853 21.4532 9.18865 21.0796C9.28877 20.7059 9.10299 20.322 8.80311 20.0777C7.90862 19.3489 7.4741 18.1379 7.79207 16.9512C8.22402 15.3391 9.88103 14.3825 11.4931 14.8144C13.1051 15.2464 14.0618 16.9034 13.6299 18.5154C13.3119 19.7021 12.3301 20.5336 11.191 20.7175C10.8092 20.7792 10.4563 21.0188 10.3562 21.3924Z" fill="white"/>
<path d="M22.3773 19.5796C22.1329 19.8795 21.7491 20.0653 21.3754 19.9651C21.0017 19.865 20.7622 19.5122 20.7005 19.1303C20.5167 17.9913 19.6851 17.0095 18.4984 16.6915C16.8864 16.2595 15.2294 17.2162 14.7974 18.8283C14.3655 20.4403 15.3221 22.0973 16.9342 22.5293C18.1209 22.8472 19.3319 22.4127 20.0607 21.5182C20.305 21.2183 20.6889 21.0326 21.0626 21.1327C21.4362 21.2328 21.6758 21.5856 21.7374 21.9675C21.9213 23.1066 22.7529 24.0884 23.9395 24.4064C25.5516 24.8383 27.2086 23.8816 27.6406 22.2696C28.0725 20.6575 27.1158 19.0005 25.5038 18.5686C24.3171 18.2506 23.106 18.6851 22.3773 19.5796Z" fill="white"/>
<path d="M6.62452 16.6383C6.19257 18.2504 4.53556 19.2071 2.92351 18.7751C1.31145 18.3432 0.354779 16.6862 0.78673 15.0741C1.21868 13.4621 2.87568 12.5054 4.48774 12.9373C6.09979 13.3693 7.05647 15.0263 6.62452 16.6383Z" fill="white"/>
<path d="M13.683 6.64151C15.2951 7.07346 16.9521 6.11679 17.384 4.50473C17.816 2.89267 16.8593 1.23567 15.2472 0.803723C13.6352 0.371774 11.9782 1.32844 11.5462 2.9405C11.1143 4.55256 12.071 6.20956 13.683 6.64151Z" fill="white"/>
<path d="M29.5176 15.2642C29.0857 16.8763 27.4287 17.833 25.8166 17.401C24.2046 16.9691 23.2479 15.3121 23.6798 13.7C24.1118 12.0879 25.7688 11.1313 27.3808 11.5632C28.9929 11.9952 29.9496 13.6522 29.5176 15.2642Z" fill="white"/>
<path d="M15.0571 29.5346C16.6692 29.9666 18.3262 29.0099 18.7581 27.3978C19.1901 25.7858 18.2334 24.1288 16.6214 23.6968C15.0093 23.2649 13.3523 24.2215 12.9203 25.8336C12.4884 27.4457 13.4451 29.1027 15.0571 29.5346Z" fill="white"/>
</svg>
