<?xml version="1.0" encoding="UTF-8" standalone="no"?>
<svg
   width="87"
   height="36"
   viewBox="0 0 87 36"
   fill="none"
   version="1.1"
   id="svg96"
   sodipodi:docname="logo-right.svg"
   inkscape:version="1.1.2 (b8e25be8, 2022-02-05)"
   xmlns:inkscape="http://www.inkscape.org/namespaces/inkscape"
   xmlns:sodipodi="http://sodipodi.sourceforge.net/DTD/sodipodi-0.dtd"
   xmlns="http://www.w3.org/2000/svg"
   xmlns:svg="http://www.w3.org/2000/svg">
  <defs
     id="defs100" />
  <sodipodi:namedview
     id="namedview98"
     pagecolor="#ffffff"
     bordercolor="#666666"
     borderopacity="1.0"
     inkscape:pageshadow="2"
     inkscape:pageopacity="0.0"
     inkscape:pagecheckerboard="0"
     showgrid="false"
     inkscape:zoom="16.942529"
     inkscape:cx="33.761194"
     inkscape:cy="18.680801"
     inkscape:window-width="1687"
     inkscape:window-height="1081"
     inkscape:window-x="0"
     inkscape:window-y="25"
     inkscape:window-maximized="0"
     inkscape:current-layer="svg96" />
  <mask
     id="path-1-outside-1_2_425"
     maskUnits="userSpaceOnUse"
     x="0"
     y="0"
     width="87"
     height="36"
     fill="black">
    <rect
       fill="white"
       width="87"
       height="36"
       id="rect9" />
    <path
       d="M1 34.7939C1 34.8548 1.02608 34.8808 1.08693 34.8808H2.59946C2.66031 34.8808 2.69508 34.8548 2.69508 34.7939V22.4328C2.68639 22.372 2.66031 22.3459 2.59946 22.3459H1.08693C1.02608 22.3459 1 22.372 1 22.4328V34.7939Z"
       id="path11" />
    <path
       d="M4.92043 28.6134C4.92043 32.4121 6.6329 35.0547 10.5446 35.0547C11.4748 35.0547 12.2571 34.8982 12.9091 34.594C13.561 34.2897 14.1 33.9246 14.5085 33.4987C14.9171 33.0727 15.2126 32.6294 15.3952 32.1774C15.5777 31.7254 15.6733 31.3516 15.6733 31.056C15.6733 30.9952 15.6473 30.9604 15.5864 30.9604H14.0217C13.9435 30.9691 13.9 30.9952 13.8913 31.056C13.6132 32.0122 12.6657 33.5422 10.5446 33.5422C9.30157 33.5422 8.34537 33.1075 7.68472 32.2382C7.03276 31.3603 6.70244 30.152 6.70244 28.6134C6.70244 27.0747 7.03276 25.8665 7.68472 24.9972C8.34537 24.1192 9.30157 23.6846 10.5446 23.6846C11.7182 23.6846 12.4831 24.1192 12.996 24.6408C13.5089 25.1623 13.7523 25.7969 13.8913 26.1794C13.9174 26.2402 13.9609 26.2663 14.0217 26.2663H15.5864C15.6473 26.2663 15.6733 26.2402 15.6733 26.1794C15.6733 25.9273 15.5864 25.5796 15.4126 25.1363C15.2474 24.6929 14.9605 24.2496 14.5607 23.8063C14.1695 23.363 13.6392 22.9805 12.9873 22.6588C12.3353 22.3372 11.5182 22.172 10.5446 22.172C6.97191 22.172 4.92043 24.8581 4.92043 28.6134Z"
       id="path13" />
    <path
       d="M17.5423 34.7939C17.5423 34.8548 17.5684 34.8808 17.6292 34.8808H19.1418C19.2026 34.8808 19.2287 34.8548 19.2287 34.7939V29.9868C19.2287 29.926 19.2548 29.8999 19.3156 29.8999H23.1839C25.1224 29.8999 26.8174 28.2657 26.8174 26.1533C26.8174 24.0323 25.1224 22.3459 23.1839 22.3459H17.6292C17.5684 22.3459 17.5423 22.372 17.5423 22.4328V34.7939ZM19.2287 23.9541C19.2287 23.8932 19.2548 23.8584 19.3156 23.8584H22.9666C24.0792 23.8584 25.1224 24.9276 25.1224 26.1533C25.1224 27.3877 24.0792 28.3787 22.9666 28.3787H19.3156C19.2548 28.3787 19.2287 28.3526 19.2287 28.2917V23.9541Z"
       id="path15" />
    <path
       d="M28.5212 34.7939C28.5299 34.8548 28.556 34.8808 28.6168 34.8808H30.1294C30.1902 34.8808 30.2163 34.8548 30.2163 34.7939V22.4328C30.2163 22.372 30.1902 22.3459 30.1294 22.3459H28.6168C28.556 22.3459 28.5212 22.372 28.5212 22.4328V34.7939Z"
       id="path17" />
    <path
       d="M32.233 32.2122C32.233 33.0641 32.5286 33.7508 33.1197 34.2723C33.7108 34.7939 34.6061 35.0547 35.8057 35.0547C36.9619 35.0547 38.1528 34.4462 38.5874 34.0116C38.6309 33.9681 38.7004 33.9681 38.7265 34.0637L38.909 34.7939C38.9351 34.8548 38.9612 34.8808 38.996 34.8808H40.3347C40.3955 34.8808 40.4216 34.8548 40.4216 34.7939V28.9872C40.4216 27.9006 40.0652 27.0748 39.3524 26.5271C38.6396 25.9708 37.666 25.6926 36.4316 25.6926C34.4149 25.6926 32.5547 26.7357 32.5547 28.8307C32.5547 28.8915 32.5807 28.9176 32.6416 28.9176H34.1715C34.2324 28.9176 34.2584 28.8915 34.2584 28.8307C34.2584 28.3787 34.4236 27.9962 34.7626 27.6832C35.1016 27.3616 35.658 27.2051 36.4316 27.2051C38.5526 27.2051 38.7265 28.2222 38.7265 28.9524C38.7265 29.1175 38.7004 29.2566 38.657 29.3609C38.6135 29.4566 38.4396 29.5087 38.1441 29.5087H36.1448C33.5195 29.5087 32.233 30.6649 32.233 32.2122ZM33.9194 32.2122C33.9194 31.595 34.2497 30.9343 36.1448 30.8387H38.6396C38.7004 30.8387 38.7265 30.8648 38.7265 30.9256V31.1777C38.683 32.2643 37.9615 33.5422 35.7884 33.5422C34.3801 33.5422 33.9194 32.8641 33.9194 32.2122Z"
       id="path19" />
    <path
       d="M42.4122 34.7939C42.4122 34.8548 42.4383 34.8808 42.4991 34.8808H44.0117C44.0725 34.8808 44.0986 34.8548 44.0986 34.7939V29.8999C44.0986 28.5091 44.9505 27.2051 46.4543 27.2051C48.2103 27.2051 48.8188 28.5612 48.8188 29.8999V34.7939C48.8188 34.8548 48.8449 34.8808 48.9057 34.8808H50.4182C50.4791 34.8808 50.5139 34.8548 50.5139 34.7939V29.8999C50.5139 27.5702 49.2099 25.6926 46.6282 25.6926C46.0284 25.6926 45.5329 25.8056 45.1504 26.0403C44.7766 26.275 44.4898 26.5184 44.2985 26.7792C44.2551 26.8227 44.1421 26.8748 44.0986 26.7618L43.9248 25.9621C43.8987 25.9012 43.8726 25.8752 43.8378 25.8752H42.4991C42.4383 25.8752 42.4122 25.9012 42.4122 25.9621V34.7939Z"
       id="path21" />
    <path
       d="M51.9482 30.378C51.9482 33.1597 53.5998 35.0547 56.2685 35.0547C57.2768 35.0547 58.1461 34.82 58.8763 34.3419C59.6065 33.8638 60.0933 33.1771 60.328 32.2991C60.3367 32.2382 60.3106 32.2122 60.241 32.2122H58.659C58.5981 32.2122 58.5546 32.2382 58.5286 32.2991C58.346 32.6555 58.0765 32.951 57.7375 33.1857C57.3985 33.4205 56.9117 33.5422 56.2685 33.5422C54.6951 33.5422 53.7389 32.3686 53.7389 31.0734C53.7476 31.0126 53.7736 30.9778 53.8345 30.9778H60.4757C60.5105 30.9778 60.5366 30.9517 60.5627 30.8909C60.5974 30.7518 60.6148 30.5779 60.6148 30.378C60.6148 27.605 59.0327 25.6926 56.2685 25.6926C53.4955 25.6926 51.9482 27.5702 51.9482 30.378ZM53.7389 29.5609C53.7389 28.7264 54.5473 27.2051 56.2685 27.2051C58.0331 27.2051 58.7633 28.5438 58.7633 29.5609C58.7633 29.6217 58.7372 29.6478 58.6763 29.6478H53.8345C53.7736 29.6478 53.7389 29.6217 53.7389 29.5609Z"
       id="path23" />
    <path
       d="M61.3972 27.1182C61.3972 27.1791 61.4233 27.2051 61.4841 27.2051H63.0662C63.127 27.2138 63.1531 27.2399 63.1531 27.3008V32.7772C63.1531 33.5074 63.353 34.0463 63.7616 34.394C64.1441 34.7157 64.6743 34.8808 65.3524 34.8808H66.8562C66.9171 34.8808 66.9518 34.8548 66.9518 34.7939V33.4552C66.9431 33.3944 66.9171 33.3683 66.8562 33.3683H65.8131C65.0916 33.3683 64.8482 33.0293 64.8482 32.4816V27.3008C64.8482 27.2399 64.8743 27.2051 64.9351 27.2051H66.8562C66.9171 27.2051 66.9518 27.1791 66.9518 27.1182V25.9621C66.9431 25.9012 66.9171 25.8752 66.8562 25.8752H64.9351C64.8743 25.8665 64.8482 25.8404 64.8482 25.7795V23.3803C64.8482 23.3195 64.8221 23.2934 64.7613 23.2934H63.2487C63.1879 23.2934 63.1531 23.3195 63.1531 23.3803V25.7795C63.1531 25.8404 63.127 25.8752 63.0662 25.8752H61.4841C61.4233 25.8752 61.3972 25.9012 61.3972 25.9621V27.1182Z"
       id="path25" />
    <path
       d="M68.0471 30.378C68.0471 33.1597 69.6987 35.0547 72.3674 35.0547C73.3758 35.0547 74.245 34.82 74.9752 34.3419C75.7054 33.8638 76.1922 33.1771 76.4269 32.2991C76.4356 32.2382 76.4095 32.2122 76.34 32.2122H74.7579C74.6971 32.2122 74.6536 32.2382 74.6275 32.2991C74.445 32.6555 74.1755 32.951 73.8365 33.1857C73.4975 33.4205 73.0107 33.5422 72.3674 33.5422C70.794 33.5422 69.8378 32.3686 69.8378 31.0734C69.8465 31.0126 69.8726 30.9778 69.9334 30.9778H76.5747C76.6095 30.9778 76.6356 30.9517 76.6616 30.8909C76.6964 30.7518 76.7138 30.5779 76.7138 30.378C76.7138 27.605 75.1317 25.6926 72.3674 25.6926C69.5944 25.6926 68.0471 27.5702 68.0471 30.378ZM69.8378 29.5609C69.8378 28.7264 70.6462 27.2051 72.3674 27.2051C74.132 27.2051 74.8622 28.5438 74.8622 29.5609C74.8622 29.6217 74.8361 29.6478 74.7753 29.6478H69.9334C69.8726 29.6478 69.8378 29.6217 69.8378 29.5609Z"
       id="path27" />
    <path
       d="M77.9568 31.9253C77.9568 33.6378 79.2694 35.0547 81.9816 35.0547C84.1982 35.0547 85.8933 34.2463 85.8933 32.1948C85.8933 31.6211 85.7716 31.169 85.5282 30.8387C85.2848 30.5084 84.9719 30.2563 84.5981 30.0737C83.8592 29.7173 82.8595 29.6217 81.9816 29.5087C81.0775 29.3436 79.8084 29.3783 79.8084 28.3439C79.8084 28.0744 79.9562 27.8136 80.2604 27.5702C80.5647 27.3268 81.0515 27.2051 81.7295 27.2051C83.1812 27.2051 83.9548 27.831 83.9548 28.8307C83.9548 28.8915 83.9809 28.9176 84.0418 28.9176H85.5717C85.6238 28.9176 85.6499 28.8915 85.6499 28.8307C85.6499 26.7357 83.9027 25.6926 81.7295 25.6926C79.5215 25.6926 78.1133 26.8922 78.1133 28.3439C78.1133 28.9089 78.235 29.3523 78.4784 29.6739C78.7218 29.9955 79.0261 30.2563 79.3998 30.4388C80.1561 30.8126 81.121 30.9256 81.9816 31.0213C82.7379 31.1169 84.2069 31.1777 84.2069 32.1948C84.2069 33.3422 82.8856 33.5422 81.9816 33.5422C81.2688 33.5422 80.7038 33.3857 80.2778 33.0727C79.8519 32.7598 79.6432 32.3773 79.6432 31.9253C79.6432 31.8645 79.6085 31.8384 79.5389 31.8384H78.0438C77.9829 31.8384 77.9568 31.8645 77.9568 31.9253Z"
       id="path29" />
    <path
       d="M1 13.4654C1 13.5262 1.02608 13.5523 1.08693 13.5523H2.59946C2.66031 13.5523 2.69508 13.5262 2.69508 13.4654V2.7994C2.69508 2.68639 2.82548 2.69508 2.86894 2.76463L8.26713 13.4654C8.3019 13.5262 8.34537 13.5523 8.40622 13.5523H11.0227C11.0836 13.5523 11.1097 13.5262 11.1097 13.4654V1.10431C11.1097 1.04346 11.0836 1.01739 11.0227 1.01739H9.51019C9.44935 1.01739 9.42327 1.04346 9.42327 1.10431V11.7703C9.42327 11.8833 9.28418 11.9007 9.24072 11.7877L3.85122 1.10431C3.80776 1.04346 3.76429 1.01739 3.72083 1.01739H1.08693C1.02608 1.01739 1 1.04346 1 1.10431V13.4654Z"
       id="path31" />
    <path
       d="M13.448 13.4654C13.4567 13.5262 13.4828 13.5523 13.5436 13.5523H15.0562C15.117 13.5523 15.1431 13.5262 15.1431 13.4654V7.9455C15.1431 7.88465 15.1692 7.85857 15.23 7.85857H21.3758C21.4366 7.84988 21.4627 7.8238 21.4627 7.76295V6.43296C21.4627 6.37212 21.4366 6.34604 21.3758 6.34604H15.23C15.1692 6.33734 15.1431 6.31127 15.1431 6.25042V2.62554C15.1431 2.56469 15.1692 2.52992 15.23 2.52992H22.106C22.1668 2.52992 22.1929 2.50384 22.1929 2.443V1.10431C22.1929 1.04346 22.1668 1.01739 22.106 1.01739H13.5436C13.4828 1.01739 13.448 1.04346 13.448 1.10431V13.4654Z"
       id="path33" />
    <path
       d="M23.1317 2.443C23.1317 2.50384 23.1578 2.52992 23.2186 2.52992H26.6523C26.6871 2.52992 26.7131 2.556 26.7392 2.59946V13.4654C26.7479 13.5262 26.774 13.5523 26.8348 13.5523H28.3474C28.4082 13.5523 28.4343 13.5262 28.4343 13.4654V2.62554C28.4343 2.56469 28.4604 2.52992 28.5212 2.52992H31.9549C32.0157 2.52992 32.0505 2.50384 32.0505 2.443V1.10431C32.0418 1.04346 32.0157 1.01739 31.9549 1.01739H23.2186C23.1578 1.01739 23.1317 1.04346 23.1317 1.10431V2.443Z"
       id="path35" />
    <path
       d="M34.594 7.26747C34.594 9.00602 35.2894 10.562 36.4108 11.7008C37.5495 12.8395 39.1142 13.5523 40.818 13.5523C44.2951 13.5523 47.0681 10.7185 47.0681 7.26747C47.0681 3.85122 44.2951 1 40.818 1C39.1142 1 37.5495 1.7128 36.4108 2.85155C35.2894 3.9903 34.594 5.56369 34.594 7.26747ZM35.1242 7.26747C35.1068 4.13808 37.6886 1.53026 40.818 1.53895C43.9647 1.53026 46.5204 4.13808 46.5378 7.26747C46.5378 8.83216 45.8858 10.2838 44.8514 11.3183C43.817 12.3527 42.3827 13.0047 40.818 13.0047C37.6712 13.0047 35.1242 10.4142 35.1242 7.26747ZM37.706 11.6138C37.706 11.6486 37.7234 11.666 37.7581 11.666H38.5057C38.5492 11.666 38.5752 11.6486 38.5752 11.6138V7.79772C38.5752 7.75426 38.5926 7.72818 38.6274 7.72818H41.4612C41.4873 7.72818 41.5047 7.75426 41.5308 7.79772L43.2606 11.6138C43.2606 11.6486 43.2867 11.666 43.3476 11.666H44.0778C44.1125 11.666 44.1299 11.6486 44.1299 11.6138C43.8604 10.9967 43.5649 10.3447 43.2519 9.67536C42.939 9.00602 42.6521 8.36275 42.3914 7.74557C42.3566 7.7021 42.374 7.66733 42.4435 7.64126C42.939 7.49348 43.3476 7.21531 43.6605 6.78937C43.9734 6.36342 44.1299 5.86794 44.1299 5.3116C44.1299 4.02507 43.1302 2.90371 41.8003 2.90371H37.7581C37.7234 2.90371 37.706 2.9211 37.706 2.95587V11.6138ZM38.5752 3.70344C38.5752 3.66867 38.5926 3.65129 38.6274 3.65129H41.8003C42.6 3.65129 43.2606 4.43363 43.2606 5.3116C43.2606 6.17218 42.6 6.98061 41.8003 6.98061H38.6274C38.5926 6.98061 38.5752 6.96322 38.5752 6.92845V3.70344Z"
       id="path37" />
  </mask>
  <path
     d="M1 34.7939C1 34.8548 1.02608 34.8808 1.08693 34.8808H2.59946C2.66031 34.8808 2.69508 34.8548 2.69508 34.7939V22.4328C2.68639 22.372 2.66031 22.3459 2.59946 22.3459H1.08693C1.02608 22.3459 1 22.372 1 22.4328V34.7939Z"
     fill="white"
     id="path40" />
  <path
     d="M4.92043 28.6134C4.92043 32.4121 6.6329 35.0547 10.5446 35.0547C11.4748 35.0547 12.2571 34.8982 12.9091 34.594C13.561 34.2897 14.1 33.9246 14.5085 33.4987C14.9171 33.0727 15.2126 32.6294 15.3952 32.1774C15.5777 31.7254 15.6733 31.3516 15.6733 31.056C15.6733 30.9952 15.6473 30.9604 15.5864 30.9604H14.0217C13.9435 30.9691 13.9 30.9952 13.8913 31.056C13.6132 32.0122 12.6657 33.5422 10.5446 33.5422C9.30157 33.5422 8.34537 33.1075 7.68472 32.2382C7.03276 31.3603 6.70244 30.152 6.70244 28.6134C6.70244 27.0747 7.03276 25.8665 7.68472 24.9972C8.34537 24.1192 9.30157 23.6846 10.5446 23.6846C11.7182 23.6846 12.4831 24.1192 12.996 24.6408C13.5089 25.1623 13.7523 25.7969 13.8913 26.1794C13.9174 26.2402 13.9609 26.2663 14.0217 26.2663H15.5864C15.6473 26.2663 15.6733 26.2402 15.6733 26.1794C15.6733 25.9273 15.5864 25.5796 15.4126 25.1363C15.2474 24.6929 14.9605 24.2496 14.5607 23.8063C14.1695 23.363 13.6392 22.9805 12.9873 22.6588C12.3353 22.3372 11.5182 22.172 10.5446 22.172C6.97191 22.172 4.92043 24.8581 4.92043 28.6134Z"
     fill="white"
     id="path42" />
  <path
     d="M17.5423 34.7939C17.5423 34.8548 17.5684 34.8808 17.6292 34.8808H19.1418C19.2026 34.8808 19.2287 34.8548 19.2287 34.7939V29.9868C19.2287 29.926 19.2548 29.8999 19.3156 29.8999H23.1839C25.1224 29.8999 26.8174 28.2657 26.8174 26.1533C26.8174 24.0323 25.1224 22.3459 23.1839 22.3459H17.6292C17.5684 22.3459 17.5423 22.372 17.5423 22.4328V34.7939ZM19.2287 23.9541C19.2287 23.8932 19.2548 23.8584 19.3156 23.8584H22.9666C24.0792 23.8584 25.1224 24.9276 25.1224 26.1533C25.1224 27.3877 24.0792 28.3787 22.9666 28.3787H19.3156C19.2548 28.3787 19.2287 28.3526 19.2287 28.2917V23.9541Z"
     fill="white"
     id="path44" />
  <path
     d="M28.5212 34.7939C28.5299 34.8548 28.556 34.8808 28.6168 34.8808H30.1294C30.1902 34.8808 30.2163 34.8548 30.2163 34.7939V22.4328C30.2163 22.372 30.1902 22.3459 30.1294 22.3459H28.6168C28.556 22.3459 28.5212 22.372 28.5212 22.4328V34.7939Z"
     fill="white"
     id="path46" />
  <path
     d="M32.233 32.2122C32.233 33.0641 32.5286 33.7508 33.1197 34.2723C33.7108 34.7939 34.6061 35.0547 35.8057 35.0547C36.9619 35.0547 38.1528 34.4462 38.5874 34.0116C38.6309 33.9681 38.7004 33.9681 38.7265 34.0637L38.909 34.7939C38.9351 34.8548 38.9612 34.8808 38.996 34.8808H40.3347C40.3955 34.8808 40.4216 34.8548 40.4216 34.7939V28.9872C40.4216 27.9006 40.0652 27.0748 39.3524 26.5271C38.6396 25.9708 37.666 25.6926 36.4316 25.6926C34.4149 25.6926 32.5547 26.7357 32.5547 28.8307C32.5547 28.8915 32.5807 28.9176 32.6416 28.9176H34.1715C34.2324 28.9176 34.2584 28.8915 34.2584 28.8307C34.2584 28.3787 34.4236 27.9962 34.7626 27.6832C35.1016 27.3616 35.658 27.2051 36.4316 27.2051C38.5526 27.2051 38.7265 28.2222 38.7265 28.9524C38.7265 29.1175 38.7004 29.2566 38.657 29.3609C38.6135 29.4566 38.4396 29.5087 38.1441 29.5087H36.1448C33.5195 29.5087 32.233 30.6649 32.233 32.2122ZM33.9194 32.2122C33.9194 31.595 34.2497 30.9343 36.1448 30.8387H38.6396C38.7004 30.8387 38.7265 30.8648 38.7265 30.9256V31.1777C38.683 32.2643 37.9615 33.5422 35.7884 33.5422C34.3801 33.5422 33.9194 32.8641 33.9194 32.2122Z"
     fill="white"
     id="path48" />
  <path
     d="M42.4122 34.7939C42.4122 34.8548 42.4383 34.8808 42.4991 34.8808H44.0117C44.0725 34.8808 44.0986 34.8548 44.0986 34.7939V29.8999C44.0986 28.5091 44.9505 27.2051 46.4543 27.2051C48.2103 27.2051 48.8188 28.5612 48.8188 29.8999V34.7939C48.8188 34.8548 48.8449 34.8808 48.9057 34.8808H50.4182C50.4791 34.8808 50.5139 34.8548 50.5139 34.7939V29.8999C50.5139 27.5702 49.2099 25.6926 46.6282 25.6926C46.0284 25.6926 45.5329 25.8056 45.1504 26.0403C44.7766 26.275 44.4898 26.5184 44.2985 26.7792C44.2551 26.8227 44.1421 26.8748 44.0986 26.7618L43.9248 25.9621C43.8987 25.9012 43.8726 25.8752 43.8378 25.8752H42.4991C42.4383 25.8752 42.4122 25.9012 42.4122 25.9621V34.7939Z"
     fill="white"
     id="path50" />
  <path
     d="M51.9482 30.378C51.9482 33.1597 53.5998 35.0547 56.2685 35.0547C57.2768 35.0547 58.1461 34.82 58.8763 34.3419C59.6065 33.8638 60.0933 33.1771 60.328 32.2991C60.3367 32.2382 60.3106 32.2122 60.241 32.2122H58.659C58.5981 32.2122 58.5546 32.2382 58.5286 32.2991C58.346 32.6555 58.0765 32.951 57.7375 33.1857C57.3985 33.4205 56.9117 33.5422 56.2685 33.5422C54.6951 33.5422 53.7389 32.3686 53.7389 31.0734C53.7476 31.0126 53.7736 30.9778 53.8345 30.9778H60.4757C60.5105 30.9778 60.5366 30.9517 60.5627 30.8909C60.5974 30.7518 60.6148 30.5779 60.6148 30.378C60.6148 27.605 59.0327 25.6926 56.2685 25.6926C53.4955 25.6926 51.9482 27.5702 51.9482 30.378ZM53.7389 29.5609C53.7389 28.7264 54.5473 27.2051 56.2685 27.2051C58.0331 27.2051 58.7633 28.5438 58.7633 29.5609C58.7633 29.6217 58.7372 29.6478 58.6763 29.6478H53.8345C53.7736 29.6478 53.7389 29.6217 53.7389 29.5609Z"
     fill="white"
     id="path52" />
  <path
     d="M61.3972 27.1182C61.3972 27.1791 61.4233 27.2051 61.4841 27.2051H63.0662C63.127 27.2138 63.1531 27.2399 63.1531 27.3008V32.7772C63.1531 33.5074 63.353 34.0463 63.7616 34.394C64.1441 34.7157 64.6743 34.8808 65.3524 34.8808H66.8562C66.9171 34.8808 66.9518 34.8548 66.9518 34.7939V33.4552C66.9431 33.3944 66.9171 33.3683 66.8562 33.3683H65.8131C65.0916 33.3683 64.8482 33.0293 64.8482 32.4816V27.3008C64.8482 27.2399 64.8743 27.2051 64.9351 27.2051H66.8562C66.9171 27.2051 66.9518 27.1791 66.9518 27.1182V25.9621C66.9431 25.9012 66.9171 25.8752 66.8562 25.8752H64.9351C64.8743 25.8665 64.8482 25.8404 64.8482 25.7795V23.3803C64.8482 23.3195 64.8221 23.2934 64.7613 23.2934H63.2487C63.1879 23.2934 63.1531 23.3195 63.1531 23.3803V25.7795C63.1531 25.8404 63.127 25.8752 63.0662 25.8752H61.4841C61.4233 25.8752 61.3972 25.9012 61.3972 25.9621V27.1182Z"
     fill="white"
     id="path54" />
  <path
     d="M68.0471 30.378C68.0471 33.1597 69.6987 35.0547 72.3674 35.0547C73.3758 35.0547 74.245 34.82 74.9752 34.3419C75.7054 33.8638 76.1922 33.1771 76.4269 32.2991C76.4356 32.2382 76.4095 32.2122 76.34 32.2122H74.7579C74.6971 32.2122 74.6536 32.2382 74.6275 32.2991C74.445 32.6555 74.1755 32.951 73.8365 33.1857C73.4975 33.4205 73.0107 33.5422 72.3674 33.5422C70.794 33.5422 69.8378 32.3686 69.8378 31.0734C69.8465 31.0126 69.8726 30.9778 69.9334 30.9778H76.5747C76.6095 30.9778 76.6356 30.9517 76.6616 30.8909C76.6964 30.7518 76.7138 30.5779 76.7138 30.378C76.7138 27.605 75.1317 25.6926 72.3674 25.6926C69.5944 25.6926 68.0471 27.5702 68.0471 30.378ZM69.8378 29.5609C69.8378 28.7264 70.6462 27.2051 72.3674 27.2051C74.132 27.2051 74.8622 28.5438 74.8622 29.5609C74.8622 29.6217 74.8361 29.6478 74.7753 29.6478H69.9334C69.8726 29.6478 69.8378 29.6217 69.8378 29.5609Z"
     fill="white"
     id="path56" />
  <path
     d="M77.9568 31.9253C77.9568 33.6378 79.2694 35.0547 81.9816 35.0547C84.1982 35.0547 85.8933 34.2463 85.8933 32.1948C85.8933 31.6211 85.7716 31.169 85.5282 30.8387C85.2848 30.5084 84.9719 30.2563 84.5981 30.0737C83.8592 29.7173 82.8595 29.6217 81.9816 29.5087C81.0775 29.3436 79.8084 29.3783 79.8084 28.3439C79.8084 28.0744 79.9562 27.8136 80.2604 27.5702C80.5647 27.3268 81.0515 27.2051 81.7295 27.2051C83.1812 27.2051 83.9548 27.831 83.9548 28.8307C83.9548 28.8915 83.9809 28.9176 84.0418 28.9176H85.5717C85.6238 28.9176 85.6499 28.8915 85.6499 28.8307C85.6499 26.7357 83.9027 25.6926 81.7295 25.6926C79.5215 25.6926 78.1133 26.8922 78.1133 28.3439C78.1133 28.9089 78.235 29.3523 78.4784 29.6739C78.7218 29.9955 79.0261 30.2563 79.3998 30.4388C80.1561 30.8126 81.121 30.9256 81.9816 31.0213C82.7379 31.1169 84.2069 31.1777 84.2069 32.1948C84.2069 33.3422 82.8856 33.5422 81.9816 33.5422C81.2688 33.5422 80.7038 33.3857 80.2778 33.0727C79.8519 32.7598 79.6432 32.3773 79.6432 31.9253C79.6432 31.8645 79.6085 31.8384 79.5389 31.8384H78.0438C77.9829 31.8384 77.9568 31.8645 77.9568 31.9253Z"
     fill="white"
     id="path58" />
  <path
     d="M1 13.4654C1 13.5262 1.02608 13.5523 1.08693 13.5523H2.59946C2.66031 13.5523 2.69508 13.5262 2.69508 13.4654V2.7994C2.69508 2.68639 2.82548 2.69508 2.86894 2.76463L8.26713 13.4654C8.3019 13.5262 8.34537 13.5523 8.40622 13.5523H11.0227C11.0836 13.5523 11.1097 13.5262 11.1097 13.4654V1.10431C11.1097 1.04346 11.0836 1.01739 11.0227 1.01739H9.51019C9.44935 1.01739 9.42327 1.04346 9.42327 1.10431V11.7703C9.42327 11.8833 9.28418 11.9007 9.24072 11.7877L3.85122 1.10431C3.80776 1.04346 3.76429 1.01739 3.72083 1.01739H1.08693C1.02608 1.01739 1 1.04346 1 1.10431V13.4654Z"
     fill="white"
     id="path60" />
  <path
     d="M13.448 13.4654C13.4567 13.5262 13.4828 13.5523 13.5436 13.5523H15.0562C15.117 13.5523 15.1431 13.5262 15.1431 13.4654V7.9455C15.1431 7.88465 15.1692 7.85857 15.23 7.85857H21.3758C21.4366 7.84988 21.4627 7.8238 21.4627 7.76295V6.43296C21.4627 6.37212 21.4366 6.34604 21.3758 6.34604H15.23C15.1692 6.33734 15.1431 6.31127 15.1431 6.25042V2.62554C15.1431 2.56469 15.1692 2.52992 15.23 2.52992H22.106C22.1668 2.52992 22.1929 2.50384 22.1929 2.443V1.10431C22.1929 1.04346 22.1668 1.01739 22.106 1.01739H13.5436C13.4828 1.01739 13.448 1.04346 13.448 1.10431V13.4654Z"
     fill="white"
     id="path62" />
  <path
     d="M23.1317 2.443C23.1317 2.50384 23.1578 2.52992 23.2186 2.52992H26.6523C26.6871 2.52992 26.7131 2.556 26.7392 2.59946V13.4654C26.7479 13.5262 26.774 13.5523 26.8348 13.5523H28.3474C28.4082 13.5523 28.4343 13.5262 28.4343 13.4654V2.62554C28.4343 2.56469 28.4604 2.52992 28.5212 2.52992H31.9549C32.0157 2.52992 32.0505 2.50384 32.0505 2.443V1.10431C32.0418 1.04346 32.0157 1.01739 31.9549 1.01739H23.2186C23.1578 1.01739 23.1317 1.04346 23.1317 1.10431V2.443Z"
     fill="white"
     id="path64" />
  <path
     d="M34.594 7.26747C34.594 9.00602 35.2894 10.562 36.4108 11.7008C37.5495 12.8395 39.1142 13.5523 40.818 13.5523C44.2951 13.5523 47.0681 10.7185 47.0681 7.26747C47.0681 3.85122 44.2951 1 40.818 1C39.1142 1 37.5495 1.7128 36.4108 2.85155C35.2894 3.9903 34.594 5.56369 34.594 7.26747ZM35.1242 7.26747C35.1068 4.13808 37.6886 1.53026 40.818 1.53895C43.9647 1.53026 46.5204 4.13808 46.5378 7.26747C46.5378 8.83216 45.8858 10.2838 44.8514 11.3183C43.817 12.3527 42.3827 13.0047 40.818 13.0047C37.6712 13.0047 35.1242 10.4142 35.1242 7.26747ZM37.706 11.6138C37.706 11.6486 37.7234 11.666 37.7581 11.666H38.5057C38.5492 11.666 38.5752 11.6486 38.5752 11.6138V7.79772C38.5752 7.75426 38.5926 7.72818 38.6274 7.72818H41.4612C41.4873 7.72818 41.5047 7.75426 41.5308 7.79772L43.2606 11.6138C43.2606 11.6486 43.2867 11.666 43.3476 11.666H44.0778C44.1125 11.666 44.1299 11.6486 44.1299 11.6138C43.8604 10.9967 43.5649 10.3447 43.2519 9.67536C42.939 9.00602 42.6521 8.36275 42.3914 7.74557C42.3566 7.7021 42.374 7.66733 42.4435 7.64126C42.939 7.49348 43.3476 7.21531 43.6605 6.78937C43.9734 6.36342 44.1299 5.86794 44.1299 5.3116C44.1299 4.02507 43.1302 2.90371 41.8003 2.90371H37.7581C37.7234 2.90371 37.706 2.9211 37.706 2.95587V11.6138ZM38.5752 3.70344C38.5752 3.66867 38.5926 3.65129 38.6274 3.65129H41.8003C42.6 3.65129 43.2606 4.43363 43.2606 5.3116C43.2606 6.17218 42.6 6.98061 41.8003 6.98061H38.6274C38.5926 6.98061 38.5752 6.96322 38.5752 6.92845V3.70344Z"
     fill="white"
     id="path66" />
  <path
     d="M1 34.7939C1 34.8548 1.02608 34.8808 1.08693 34.8808H2.59946C2.66031 34.8808 2.69508 34.8548 2.69508 34.7939V22.4328C2.68639 22.372 2.66031 22.3459 2.59946 22.3459H1.08693C1.02608 22.3459 1 22.372 1 22.4328V34.7939Z"
     stroke="white"
     stroke-width="0.356055"
     mask="url(#path-1-outside-1_2_425)"
     id="path68" />
  <path
     d="M4.92043 28.6134C4.92043 32.4121 6.6329 35.0547 10.5446 35.0547C11.4748 35.0547 12.2571 34.8982 12.9091 34.594C13.561 34.2897 14.1 33.9246 14.5085 33.4987C14.9171 33.0727 15.2126 32.6294 15.3952 32.1774C15.5777 31.7254 15.6733 31.3516 15.6733 31.056C15.6733 30.9952 15.6473 30.9604 15.5864 30.9604H14.0217C13.9435 30.9691 13.9 30.9952 13.8913 31.056C13.6132 32.0122 12.6657 33.5422 10.5446 33.5422C9.30157 33.5422 8.34537 33.1075 7.68472 32.2382C7.03276 31.3603 6.70244 30.152 6.70244 28.6134C6.70244 27.0747 7.03276 25.8665 7.68472 24.9972C8.34537 24.1192 9.30157 23.6846 10.5446 23.6846C11.7182 23.6846 12.4831 24.1192 12.996 24.6408C13.5089 25.1623 13.7523 25.7969 13.8913 26.1794C13.9174 26.2402 13.9609 26.2663 14.0217 26.2663H15.5864C15.6473 26.2663 15.6733 26.2402 15.6733 26.1794C15.6733 25.9273 15.5864 25.5796 15.4126 25.1363C15.2474 24.6929 14.9605 24.2496 14.5607 23.8063C14.1695 23.363 13.6392 22.9805 12.9873 22.6588C12.3353 22.3372 11.5182 22.172 10.5446 22.172C6.97191 22.172 4.92043 24.8581 4.92043 28.6134Z"
     stroke="white"
     stroke-width="0.356055"
     mask="url(#path-1-outside-1_2_425)"
     id="path70" />
  <path
     d="M17.5423 34.7939C17.5423 34.8548 17.5684 34.8808 17.6292 34.8808H19.1418C19.2026 34.8808 19.2287 34.8548 19.2287 34.7939V29.9868C19.2287 29.926 19.2548 29.8999 19.3156 29.8999H23.1839C25.1224 29.8999 26.8174 28.2657 26.8174 26.1533C26.8174 24.0323 25.1224 22.3459 23.1839 22.3459H17.6292C17.5684 22.3459 17.5423 22.372 17.5423 22.4328V34.7939ZM19.2287 23.9541C19.2287 23.8932 19.2548 23.8584 19.3156 23.8584H22.9666C24.0792 23.8584 25.1224 24.9276 25.1224 26.1533C25.1224 27.3877 24.0792 28.3787 22.9666 28.3787H19.3156C19.2548 28.3787 19.2287 28.3526 19.2287 28.2917V23.9541Z"
     stroke="white"
     stroke-width="0.356055"
     mask="url(#path-1-outside-1_2_425)"
     id="path72" />
  <path
     d="M28.5212 34.7939C28.5299 34.8548 28.556 34.8808 28.6168 34.8808H30.1294C30.1902 34.8808 30.2163 34.8548 30.2163 34.7939V22.4328C30.2163 22.372 30.1902 22.3459 30.1294 22.3459H28.6168C28.556 22.3459 28.5212 22.372 28.5212 22.4328V34.7939Z"
     stroke="white"
     stroke-width="0.356055"
     mask="url(#path-1-outside-1_2_425)"
     id="path74" />
  <path
     d="M32.233 32.2122C32.233 33.0641 32.5286 33.7508 33.1197 34.2723C33.7108 34.7939 34.6061 35.0547 35.8057 35.0547C36.9619 35.0547 38.1528 34.4462 38.5874 34.0116C38.6309 33.9681 38.7004 33.9681 38.7265 34.0637L38.909 34.7939C38.9351 34.8548 38.9612 34.8808 38.996 34.8808H40.3347C40.3955 34.8808 40.4216 34.8548 40.4216 34.7939V28.9872C40.4216 27.9006 40.0652 27.0748 39.3524 26.5271C38.6396 25.9708 37.666 25.6926 36.4316 25.6926C34.4149 25.6926 32.5547 26.7357 32.5547 28.8307C32.5547 28.8915 32.5807 28.9176 32.6416 28.9176H34.1715C34.2324 28.9176 34.2584 28.8915 34.2584 28.8307C34.2584 28.3787 34.4236 27.9962 34.7626 27.6832C35.1016 27.3616 35.658 27.2051 36.4316 27.2051C38.5526 27.2051 38.7265 28.2222 38.7265 28.9524C38.7265 29.1175 38.7004 29.2566 38.657 29.3609C38.6135 29.4566 38.4396 29.5087 38.1441 29.5087H36.1448C33.5195 29.5087 32.233 30.6649 32.233 32.2122ZM33.9194 32.2122C33.9194 31.595 34.2497 30.9343 36.1448 30.8387H38.6396C38.7004 30.8387 38.7265 30.8648 38.7265 30.9256V31.1777C38.683 32.2643 37.9615 33.5422 35.7884 33.5422C34.3801 33.5422 33.9194 32.8641 33.9194 32.2122Z"
     stroke="white"
     stroke-width="0.356055"
     mask="url(#path-1-outside-1_2_425)"
     id="path76" />
  <path
     d="M42.4122 34.7939C42.4122 34.8548 42.4383 34.8808 42.4991 34.8808H44.0117C44.0725 34.8808 44.0986 34.8548 44.0986 34.7939V29.8999C44.0986 28.5091 44.9505 27.2051 46.4543 27.2051C48.2103 27.2051 48.8188 28.5612 48.8188 29.8999V34.7939C48.8188 34.8548 48.8449 34.8808 48.9057 34.8808H50.4182C50.4791 34.8808 50.5139 34.8548 50.5139 34.7939V29.8999C50.5139 27.5702 49.2099 25.6926 46.6282 25.6926C46.0284 25.6926 45.5329 25.8056 45.1504 26.0403C44.7766 26.275 44.4898 26.5184 44.2985 26.7792C44.2551 26.8227 44.1421 26.8748 44.0986 26.7618L43.9248 25.9621C43.8987 25.9012 43.8726 25.8752 43.8378 25.8752H42.4991C42.4383 25.8752 42.4122 25.9012 42.4122 25.9621V34.7939Z"
     stroke="white"
     stroke-width="0.356055"
     mask="url(#path-1-outside-1_2_425)"
     id="path78"
     style="fill:#ff2a2a" />
  <path
     d="M51.9482 30.378C51.9482 33.1597 53.5998 35.0547 56.2685 35.0547C57.2768 35.0547 58.1461 34.82 58.8763 34.3419C59.6065 33.8638 60.0933 33.1771 60.328 32.2991C60.3367 32.2382 60.3106 32.2122 60.241 32.2122H58.659C58.5981 32.2122 58.5546 32.2382 58.5286 32.2991C58.346 32.6555 58.0765 32.951 57.7375 33.1857C57.3985 33.4205 56.9117 33.5422 56.2685 33.5422C54.6951 33.5422 53.7389 32.3686 53.7389 31.0734C53.7476 31.0126 53.7736 30.9778 53.8345 30.9778H60.4757C60.5105 30.9778 60.5366 30.9517 60.5627 30.8909C60.5974 30.7518 60.6148 30.5779 60.6148 30.378C60.6148 27.605 59.0327 25.6926 56.2685 25.6926C53.4955 25.6926 51.9482 27.5702 51.9482 30.378ZM53.7389 29.5609C53.7389 28.7264 54.5473 27.2051 56.2685 27.2051C58.0331 27.2051 58.7633 28.5438 58.7633 29.5609C58.7633 29.6217 58.7372 29.6478 58.6763 29.6478H53.8345C53.7736 29.6478 53.7389 29.6217 53.7389 29.5609Z"
     stroke="white"
     stroke-width="0.356055"
     mask="url(#path-1-outside-1_2_425)"
     id="path80" />
  <path
     d="M61.3972 27.1182C61.3972 27.1791 61.4233 27.2051 61.4841 27.2051H63.0662C63.127 27.2138 63.1531 27.2399 63.1531 27.3008V32.7772C63.1531 33.5074 63.353 34.0463 63.7616 34.394C64.1441 34.7157 64.6743 34.8808 65.3524 34.8808H66.8562C66.9171 34.8808 66.9518 34.8548 66.9518 34.7939V33.4552C66.9431 33.3944 66.9171 33.3683 66.8562 33.3683H65.8131C65.0916 33.3683 64.8482 33.0293 64.8482 32.4816V27.3008C64.8482 27.2399 64.8743 27.2051 64.9351 27.2051H66.8562C66.9171 27.2051 66.9518 27.1791 66.9518 27.1182V25.9621C66.9431 25.9012 66.9171 25.8752 66.8562 25.8752H64.9351C64.8743 25.8665 64.8482 25.8404 64.8482 25.7795V23.3803C64.8482 23.3195 64.8221 23.2934 64.7613 23.2934H63.2487C63.1879 23.2934 63.1531 23.3195 63.1531 23.3803V25.7795C63.1531 25.8404 63.127 25.8752 63.0662 25.8752H61.4841C61.4233 25.8752 61.3972 25.9012 61.3972 25.9621V27.1182Z"
     stroke="white"
     stroke-width="0.356055"
     mask="url(#path-1-outside-1_2_425)"
     id="path82" />
  <path
     d="M68.0471 30.378C68.0471 33.1597 69.6987 35.0547 72.3674 35.0547C73.3758 35.0547 74.245 34.82 74.9752 34.3419C75.7054 33.8638 76.1922 33.1771 76.4269 32.2991C76.4356 32.2382 76.4095 32.2122 76.34 32.2122H74.7579C74.6971 32.2122 74.6536 32.2382 74.6275 32.2991C74.445 32.6555 74.1755 32.951 73.8365 33.1857C73.4975 33.4205 73.0107 33.5422 72.3674 33.5422C70.794 33.5422 69.8378 32.3686 69.8378 31.0734C69.8465 31.0126 69.8726 30.9778 69.9334 30.9778H76.5747C76.6095 30.9778 76.6356 30.9517 76.6616 30.8909C76.6964 30.7518 76.7138 30.5779 76.7138 30.378C76.7138 27.605 75.1317 25.6926 72.3674 25.6926C69.5944 25.6926 68.0471 27.5702 68.0471 30.378ZM69.8378 29.5609C69.8378 28.7264 70.6462 27.2051 72.3674 27.2051C74.132 27.2051 74.8622 28.5438 74.8622 29.5609C74.8622 29.6217 74.8361 29.6478 74.7753 29.6478H69.9334C69.8726 29.6478 69.8378 29.6217 69.8378 29.5609Z"
     stroke="white"
     stroke-width="0.356055"
     mask="url(#path-1-outside-1_2_425)"
     id="path84" />
  <path
     d="M77.9568 31.9253C77.9568 33.6378 79.2694 35.0547 81.9816 35.0547C84.1982 35.0547 85.8933 34.2463 85.8933 32.1948C85.8933 31.6211 85.7716 31.169 85.5282 30.8387C85.2848 30.5084 84.9719 30.2563 84.5981 30.0737C83.8592 29.7173 82.8595 29.6217 81.9816 29.5087C81.0775 29.3436 79.8084 29.3783 79.8084 28.3439C79.8084 28.0744 79.9562 27.8136 80.2604 27.5702C80.5647 27.3268 81.0515 27.2051 81.7295 27.2051C83.1812 27.2051 83.9548 27.831 83.9548 28.8307C83.9548 28.8915 83.9809 28.9176 84.0418 28.9176H85.5717C85.6238 28.9176 85.6499 28.8915 85.6499 28.8307C85.6499 26.7357 83.9027 25.6926 81.7295 25.6926C79.5215 25.6926 78.1133 26.8922 78.1133 28.3439C78.1133 28.9089 78.235 29.3523 78.4784 29.6739C78.7218 29.9955 79.0261 30.2563 79.3998 30.4388C80.1561 30.8126 81.121 30.9256 81.9816 31.0213C82.7379 31.1169 84.2069 31.1777 84.2069 32.1948C84.2069 33.3422 82.8856 33.5422 81.9816 33.5422C81.2688 33.5422 80.7038 33.3857 80.2778 33.0727C79.8519 32.7598 79.6432 32.3773 79.6432 31.9253C79.6432 31.8645 79.6085 31.8384 79.5389 31.8384H78.0438C77.9829 31.8384 77.9568 31.8645 77.9568 31.9253Z"
     stroke="white"
     stroke-width="0.356055"
     mask="url(#path-1-outside-1_2_425)"
     id="path86" />
  <path
     d="M1 13.4654C1 13.5262 1.02608 13.5523 1.08693 13.5523H2.59946C2.66031 13.5523 2.69508 13.5262 2.69508 13.4654V2.7994C2.69508 2.68639 2.82548 2.69508 2.86894 2.76463L8.26713 13.4654C8.3019 13.5262 8.34537 13.5523 8.40622 13.5523H11.0227C11.0836 13.5523 11.1097 13.5262 11.1097 13.4654V1.10431C11.1097 1.04346 11.0836 1.01739 11.0227 1.01739H9.51019C9.44935 1.01739 9.42327 1.04346 9.42327 1.10431V11.7703C9.42327 11.8833 9.28418 11.9007 9.24072 11.7877L3.85122 1.10431C3.80776 1.04346 3.76429 1.01739 3.72083 1.01739H1.08693C1.02608 1.01739 1 1.04346 1 1.10431V13.4654Z"
     stroke="white"
     stroke-width="0.356055"
     mask="url(#path-1-outside-1_2_425)"
     id="path88" />
  <path
     d="M13.448 13.4654C13.4567 13.5262 13.4828 13.5523 13.5436 13.5523H15.0562C15.117 13.5523 15.1431 13.5262 15.1431 13.4654V7.9455C15.1431 7.88465 15.1692 7.85857 15.23 7.85857H21.3758C21.4366 7.84988 21.4627 7.8238 21.4627 7.76295V6.43296C21.4627 6.37212 21.4366 6.34604 21.3758 6.34604H15.23C15.1692 6.33734 15.1431 6.31127 15.1431 6.25042V2.62554C15.1431 2.56469 15.1692 2.52992 15.23 2.52992H22.106C22.1668 2.52992 22.1929 2.50384 22.1929 2.443V1.10431C22.1929 1.04346 22.1668 1.01739 22.106 1.01739H13.5436C13.4828 1.01739 13.448 1.04346 13.448 1.10431V13.4654Z"
     stroke="white"
     stroke-width="0.356055"
     mask="url(#path-1-outside-1_2_425)"
     id="path90" />
  <path
     d="M23.1317 2.443C23.1317 2.50384 23.1578 2.52992 23.2186 2.52992H26.6523C26.6871 2.52992 26.7131 2.556 26.7392 2.59946V13.4654C26.7479 13.5262 26.774 13.5523 26.8348 13.5523H28.3474C28.4082 13.5523 28.4343 13.5262 28.4343 13.4654V2.62554C28.4343 2.56469 28.4604 2.52992 28.5212 2.52992H31.9549C32.0157 2.52992 32.0505 2.50384 32.0505 2.443V1.10431C32.0418 1.04346 32.0157 1.01739 31.9549 1.01739H23.2186C23.1578 1.01739 23.1317 1.04346 23.1317 1.10431V2.443Z"
     stroke="white"
     stroke-width="0.356055"
     mask="url(#path-1-outside-1_2_425)"
     id="path92" />
  <path
     d="M34.594 7.26747C34.594 9.00602 35.2894 10.562 36.4108 11.7008C37.5495 12.8395 39.1142 13.5523 40.818 13.5523C44.2951 13.5523 47.0681 10.7185 47.0681 7.26747C47.0681 3.85122 44.2951 1 40.818 1C39.1142 1 37.5495 1.7128 36.4108 2.85155C35.2894 3.9903 34.594 5.56369 34.594 7.26747ZM35.1242 7.26747C35.1068 4.13808 37.6886 1.53026 40.818 1.53895C43.9647 1.53026 46.5204 4.13808 46.5378 7.26747C46.5378 8.83216 45.8858 10.2838 44.8514 11.3183C43.817 12.3527 42.3827 13.0047 40.818 13.0047C37.6712 13.0047 35.1242 10.4142 35.1242 7.26747ZM37.706 11.6138C37.706 11.6486 37.7234 11.666 37.7581 11.666H38.5057C38.5492 11.666 38.5752 11.6486 38.5752 11.6138V7.79772C38.5752 7.75426 38.5926 7.72818 38.6274 7.72818H41.4612C41.4873 7.72818 41.5047 7.75426 41.5308 7.79772L43.2606 11.6138C43.2606 11.6486 43.2867 11.666 43.3476 11.666H44.0778C44.1125 11.666 44.1299 11.6486 44.1299 11.6138C43.8604 10.9967 43.5649 10.3447 43.2519 9.67536C42.939 9.00602 42.6521 8.36275 42.3914 7.74557C42.3566 7.7021 42.374 7.66733 42.4435 7.64126C42.939 7.49348 43.3476 7.21531 43.6605 6.78937C43.9734 6.36342 44.1299 5.86794 44.1299 5.3116C44.1299 4.02507 43.1302 2.90371 41.8003 2.90371H37.7581C37.7234 2.90371 37.706 2.9211 37.706 2.95587V11.6138ZM38.5752 3.70344C38.5752 3.66867 38.5926 3.65129 38.6274 3.65129H41.8003C42.6 3.65129 43.2606 4.43363 43.2606 5.3116C43.2606 6.17218 42.6 6.98061 41.8003 6.98061H38.6274C38.5926 6.98061 38.5752 6.96322 38.5752 6.92845V3.70344Z"
     stroke="white"
     stroke-width="0.356055"
     mask="url(#path-1-outside-1_2_425)"
     id="path94" />
</svg>
