<svg width="129" height="38" viewBox="0 0 129 38" fill="none" xmlns="http://www.w3.org/2000/svg">
<path d="M23.5013 14.2606C23.2014 14.0163 23.0156 13.6324 23.1157 13.2588C23.2158 12.8851 23.5686 12.6456 23.9505 12.5839C25.0896 12.4 26.0714 11.5685 26.3894 10.3818C26.8213 8.76975 25.8646 7.11275 24.2526 6.6808C22.6405 6.24885 20.9835 7.20552 20.5516 8.81758C20.2336 10.0043 20.6681 11.2153 21.5626 11.9441C21.8625 12.1884 22.0483 12.5723 21.9481 12.9459C21.848 13.3196 21.4952 13.5591 21.1133 13.6208C19.9743 13.8047 18.9925 14.6362 18.6745 15.8229C18.2425 17.435 19.1992 19.092 20.8113 19.5239C22.4233 19.9559 24.0803 18.9992 24.5123 17.3872C24.8303 16.2005 24.3957 14.9894 23.5013 14.2606Z" fill="white"/>
<path d="M9.92709 14.7587C10.1714 14.4588 10.5553 14.2731 10.9289 14.3732C11.3026 14.4733 11.5422 14.8261 11.6038 15.208C11.7877 16.3471 12.6192 17.3289 13.8059 17.6469C15.418 18.0788 17.075 17.1221 17.5069 15.5101C17.9389 13.898 16.9822 12.241 15.3702 11.8091C14.1835 11.4911 12.9724 11.9256 12.2437 12.8201C11.9993 13.12 11.6155 13.3058 11.2418 13.2056C10.8681 13.1055 10.6286 12.7527 10.5669 12.3708C10.383 11.2318 9.55151 10.25 8.36482 9.93199C6.75276 9.50004 5.09576 10.4567 4.66381 12.0688C4.23186 13.6808 5.18853 15.3378 6.80058 15.7698C7.98728 16.0878 9.19832 15.6532 9.92709 14.7587Z" fill="white"/>
<path d="M12.3562 25.3924C12.2561 25.766 12.4419 26.1499 12.7418 26.3943C13.6362 27.123 14.0708 28.3341 13.7528 29.5208C13.3208 31.1328 11.6638 32.0895 10.0518 31.6575C8.43972 31.2256 7.48305 29.5686 7.915 27.9565C8.23297 26.7699 9.21479 25.9383 10.3538 25.7544C10.7357 25.6928 11.0885 25.4532 11.1887 25.0796C11.2888 24.7059 11.103 24.322 10.8031 24.0777C9.90862 23.3489 9.4741 22.1379 9.79207 20.9512C10.224 19.3391 11.881 18.3825 13.4931 18.8144C15.1051 19.2464 16.0618 20.9034 15.6299 22.5154C15.3119 23.7021 14.3301 24.5336 13.191 24.7175C12.8091 24.7792 12.4563 25.0188 12.3562 25.3924Z" fill="white"/>
<path d="M24.3773 23.5796C24.1329 23.8795 23.7491 24.0653 23.3754 23.9651C23.0017 23.865 22.7622 23.5122 22.7005 23.1303C22.5167 21.9913 21.6851 21.0095 20.4984 20.6915C18.8864 20.2595 17.2294 21.2162 16.7974 22.8283C16.3655 24.4403 17.3221 26.0973 18.9342 26.5293C20.1209 26.8472 21.3319 26.4127 22.0607 25.5182C22.305 25.2183 22.6889 25.0326 23.0626 25.1327C23.4362 25.2328 23.6758 25.5856 23.7374 25.9675C23.9213 27.1066 24.7529 28.0884 25.9395 28.4064C27.5516 28.8383 29.2086 27.8816 29.6406 26.2696C30.0725 24.6575 29.1158 23.0005 27.5038 22.5686C26.3171 22.2506 25.106 22.6851 24.3773 23.5796Z" fill="white"/>
<path d="M8.62452 20.6383C8.19257 22.2504 6.53556 23.2071 4.92351 22.7751C3.31145 22.3432 2.35478 20.6862 2.78673 19.0741C3.21868 17.4621 4.87568 16.5054 6.48774 16.9373C8.09979 17.3693 9.05647 19.0263 8.62452 20.6383Z" fill="white"/>
<path d="M15.683 10.6415C17.2951 11.0735 18.9521 10.1168 19.384 8.50473C19.816 6.89267 18.8593 5.23567 17.2472 4.80372C15.6352 4.37177 13.9782 5.32844 13.5462 6.9405C13.1143 8.55256 14.071 10.2096 15.683 10.6415Z" fill="white"/>
<path d="M31.5176 19.2642C31.0857 20.8763 29.4287 21.833 27.8166 21.401C26.2046 20.9691 25.2479 19.3121 25.6798 17.7C26.1118 16.0879 27.7688 15.1313 29.3808 15.5632C30.9929 15.9952 31.9496 17.6522 31.5176 19.2642Z" fill="white"/>
<path d="M17.0571 33.5346C18.6692 33.9666 20.3262 33.0099 20.7581 31.3978C21.1901 29.7858 20.2334 28.1288 18.6214 27.6968C17.0093 27.2649 15.3523 28.2215 14.9203 29.8336C14.4884 31.4457 15.4451 33.1027 17.0571 33.5346Z" fill="white"/>
<mask id="path-2-outside-1_302_3" maskUnits="userSpaceOnUse" x="50" y="1" width="78" height="36" fill="black">
<rect fill="white" x="50" y="1" width="78" height="36"/>
<path d="M51 35.7939C51 35.8548 51.0261 35.8808 51.0869 35.8808H52.5995C52.6603 35.8808 52.6951 35.8548 52.6951 35.7939V23.4328C52.6864 23.372 52.6603 23.3459 52.5995 23.3459H51.0869C51.0261 23.3459 51 23.372 51 23.4328V35.7939Z"/>
<path d="M54.9204 29.6134C54.9204 33.4121 56.6329 36.0547 60.5446 36.0547C61.4748 36.0547 62.2571 35.8982 62.9091 35.594C63.561 35.2897 64.1 34.9246 64.5085 34.4987C64.9171 34.0727 65.2126 33.6294 65.3952 33.1774C65.5777 32.7254 65.6733 32.3516 65.6733 32.056C65.6733 31.9952 65.6473 31.9604 65.5864 31.9604H64.0217C63.9435 31.9691 63.9 31.9952 63.8913 32.056C63.6132 33.0122 62.6657 34.5422 60.5446 34.5422C59.3016 34.5422 58.3454 34.1075 57.6847 33.2382C57.0328 32.3603 56.7024 31.152 56.7024 29.6134C56.7024 28.0747 57.0328 26.8665 57.6847 25.9972C58.3454 25.1192 59.3016 24.6846 60.5446 24.6846C61.7182 24.6846 62.4831 25.1192 62.996 25.6408C63.5089 26.1623 63.7523 26.7969 63.8913 27.1794C63.9174 27.2402 63.9609 27.2663 64.0217 27.2663H65.5864C65.6473 27.2663 65.6733 27.2402 65.6733 27.1794C65.6733 26.9273 65.5864 26.5796 65.4126 26.1363C65.2474 25.6929 64.9605 25.2496 64.5607 24.8063C64.1695 24.3629 63.6392 23.9805 62.9873 23.6588C62.3353 23.3372 61.5182 23.172 60.5446 23.172C56.9719 23.172 54.9204 25.8581 54.9204 29.6134Z"/>
<path d="M67.5423 35.7939C67.5423 35.8548 67.5684 35.8808 67.6292 35.8808H69.1418C69.2026 35.8808 69.2287 35.8548 69.2287 35.7939V30.9868C69.2287 30.926 69.2548 30.8999 69.3156 30.8999H73.1839C75.1224 30.8999 76.8174 29.2657 76.8174 27.1533C76.8174 25.0323 75.1224 23.3459 73.1839 23.3459H67.6292C67.5684 23.3459 67.5423 23.372 67.5423 23.4328V35.7939ZM69.2287 24.9541C69.2287 24.8932 69.2548 24.8584 69.3156 24.8584H72.9666C74.0792 24.8584 75.1224 25.9276 75.1224 27.1533C75.1224 28.3877 74.0792 29.3787 72.9666 29.3787H69.3156C69.2548 29.3787 69.2287 29.3526 69.2287 29.2917V24.9541Z"/>
<path d="M78.5212 35.7939C78.5299 35.8548 78.556 35.8808 78.6168 35.8808H80.1294C80.1902 35.8808 80.2163 35.8548 80.2163 35.7939V23.4328C80.2163 23.372 80.1902 23.3459 80.1294 23.3459H78.6168C78.556 23.3459 78.5212 23.372 78.5212 23.4328V35.7939Z"/>
<path d="M82.233 33.2122C82.233 34.0641 82.5286 34.7508 83.1197 35.2723C83.7108 35.7939 84.6061 36.0547 85.8057 36.0547C86.9619 36.0547 88.1528 35.4462 88.5874 35.0116C88.6309 34.9681 88.7004 34.9681 88.7265 35.0637L88.909 35.7939C88.9351 35.8548 88.9612 35.8808 88.996 35.8808H90.3347C90.3955 35.8808 90.4216 35.8548 90.4216 35.7939V29.9872C90.4216 28.9006 90.0652 28.0748 89.3524 27.5271C88.6396 26.9708 87.666 26.6926 86.4316 26.6926C84.4149 26.6926 82.5547 27.7357 82.5547 29.8307C82.5547 29.8915 82.5807 29.9176 82.6416 29.9176H84.1715C84.2324 29.9176 84.2584 29.8915 84.2584 29.8307C84.2584 29.3787 84.4236 28.9962 84.7626 28.6832C85.1016 28.3616 85.658 28.2051 86.4316 28.2051C88.5526 28.2051 88.7265 29.2222 88.7265 29.9524C88.7265 30.1175 88.7004 30.2566 88.657 30.3609C88.6135 30.4566 88.4396 30.5087 88.1441 30.5087H86.1448C83.5195 30.5087 82.233 31.6649 82.233 33.2122ZM83.9194 33.2122C83.9194 32.595 84.2497 31.9343 86.1448 31.8387H88.6396C88.7004 31.8387 88.7265 31.8648 88.7265 31.9256V32.1777C88.683 33.2643 87.9615 34.5422 85.7884 34.5422C84.3801 34.5422 83.9194 33.8641 83.9194 33.2122Z"/>
<path d="M92.4122 35.7939C92.4122 35.8548 92.4383 35.8808 92.4991 35.8808H94.0117C94.0725 35.8808 94.0986 35.8548 94.0986 35.7939V30.8999C94.0986 29.5091 94.9505 28.2051 96.4543 28.2051C98.2103 28.2051 98.8188 29.5612 98.8188 30.8999V35.7939C98.8188 35.8548 98.8449 35.8808 98.9057 35.8808H100.418C100.479 35.8808 100.514 35.8548 100.514 35.7939V30.8999C100.514 28.5702 99.2099 26.6926 96.6282 26.6926C96.0284 26.6926 95.5329 26.8056 95.1504 27.0403C94.7766 27.275 94.4898 27.5184 94.2985 27.7792C94.2551 27.8227 94.1421 27.8748 94.0986 27.7618L93.9248 26.9621C93.8987 26.9012 93.8726 26.8752 93.8378 26.8752H92.4991C92.4383 26.8752 92.4122 26.9012 92.4122 26.9621V35.7939Z"/>
<path d="M101.948 31.378C101.948 34.1597 103.6 36.0547 106.268 36.0547C107.277 36.0547 108.146 35.82 108.876 35.3419C109.606 34.8638 110.093 34.1771 110.328 33.2991C110.337 33.2382 110.311 33.2122 110.241 33.2122H108.659C108.598 33.2122 108.555 33.2382 108.529 33.2991C108.346 33.6555 108.077 33.951 107.738 34.1857C107.399 34.4205 106.912 34.5422 106.268 34.5422C104.695 34.5422 103.739 33.3686 103.739 32.0734C103.748 32.0126 103.774 31.9778 103.834 31.9778H110.476C110.511 31.9778 110.537 31.9517 110.563 31.8909C110.597 31.7518 110.615 31.5779 110.615 31.378C110.615 28.605 109.033 26.6926 106.268 26.6926C103.495 26.6926 101.948 28.5702 101.948 31.378ZM103.739 30.5609C103.739 29.7264 104.547 28.2051 106.268 28.2051C108.033 28.2051 108.763 29.5438 108.763 30.5609C108.763 30.6217 108.737 30.6478 108.676 30.6478H103.834C103.774 30.6478 103.739 30.6217 103.739 30.5609Z"/>
<path d="M111.397 28.1182C111.397 28.1791 111.423 28.2051 111.484 28.2051H113.066C113.127 28.2138 113.153 28.2399 113.153 28.3008V33.7772C113.153 34.5074 113.353 35.0463 113.762 35.394C114.144 35.7157 114.674 35.8808 115.352 35.8808H116.856C116.917 35.8808 116.952 35.8548 116.952 35.7939V34.4552C116.943 34.3944 116.917 34.3683 116.856 34.3683H115.813C115.092 34.3683 114.848 34.0293 114.848 33.4816V28.3008C114.848 28.2399 114.874 28.2051 114.935 28.2051H116.856C116.917 28.2051 116.952 28.1791 116.952 28.1182V26.9621C116.943 26.9012 116.917 26.8752 116.856 26.8752H114.935C114.874 26.8665 114.848 26.8404 114.848 26.7795V24.3803C114.848 24.3195 114.822 24.2934 114.761 24.2934H113.249C113.188 24.2934 113.153 24.3195 113.153 24.3803V26.7795C113.153 26.8404 113.127 26.8752 113.066 26.8752H111.484C111.423 26.8752 111.397 26.9012 111.397 26.9621V28.1182Z"/>
<path d="M118.957 32.9253C118.957 34.6378 120.269 36.0547 122.982 36.0547C125.198 36.0547 126.893 35.2463 126.893 33.1948C126.893 32.6211 126.772 32.169 126.528 31.8387C126.285 31.5084 125.972 31.2563 125.598 31.0737C124.859 30.7173 123.86 30.6217 122.982 30.5087C122.078 30.3436 120.808 30.3783 120.808 29.3439C120.808 29.0744 120.956 28.8136 121.26 28.5702C121.565 28.3268 122.051 28.2051 122.729 28.2051C124.181 28.2051 124.955 28.831 124.955 29.8307C124.955 29.8915 124.981 29.9176 125.042 29.9176H126.572C126.624 29.9176 126.65 29.8915 126.65 29.8307C126.65 27.7357 124.903 26.6926 122.729 26.6926C120.522 26.6926 119.113 27.8922 119.113 29.3439C119.113 29.9089 119.235 30.3522 119.478 30.6739C119.722 30.9955 120.026 31.2563 120.4 31.4388C121.156 31.8126 122.121 31.9256 122.982 32.0213C123.738 32.1169 125.207 32.1777 125.207 33.1948C125.207 34.3422 123.886 34.5422 122.982 34.5422C122.269 34.5422 121.704 34.3857 121.278 34.0727C120.852 33.7598 120.643 33.3773 120.643 32.9253C120.643 32.8645 120.608 32.8384 120.539 32.8384H119.044C118.983 32.8384 118.957 32.8645 118.957 32.9253Z"/>
<path d="M51 14.4654C51 14.5262 51.0261 14.5523 51.0869 14.5523H52.5995C52.6603 14.5523 52.6951 14.5262 52.6951 14.4654V3.7994C52.6951 3.68639 52.8255 3.69508 52.8689 3.76463L58.2671 14.4654C58.3019 14.5262 58.3454 14.5523 58.4062 14.5523H61.0227C61.0836 14.5523 61.1097 14.5262 61.1097 14.4654V2.10431C61.1097 2.04346 61.0836 2.01739 61.0227 2.01739H59.5102C59.4493 2.01739 59.4233 2.04346 59.4233 2.10431V12.7703C59.4233 12.8833 59.2842 12.9007 59.2407 12.7877L53.8512 2.10431C53.8078 2.04346 53.7643 2.01739 53.7208 2.01739H51.0869C51.0261 2.01739 51 2.04346 51 2.10431V14.4654Z"/>
<path d="M63.448 14.4654C63.4567 14.5262 63.4828 14.5523 63.5436 14.5523H65.0562C65.117 14.5523 65.1431 14.5262 65.1431 14.4654V8.9455C65.1431 8.88465 65.1692 8.85857 65.23 8.85857H71.3758C71.4366 8.84988 71.4627 8.8238 71.4627 8.76295V7.43296C71.4627 7.37212 71.4366 7.34604 71.3758 7.34604H65.23C65.1692 7.33734 65.1431 7.31127 65.1431 7.25042V3.62554C65.1431 3.56469 65.1692 3.52992 65.23 3.52992H72.106C72.1668 3.52992 72.1929 3.50384 72.1929 3.443V2.10431C72.1929 2.04346 72.1668 2.01739 72.106 2.01739H63.5436C63.4828 2.01739 63.448 2.04346 63.448 2.10431V14.4654Z"/>
<path d="M73.1317 3.443C73.1317 3.50384 73.1578 3.52992 73.2186 3.52992H76.6523C76.6871 3.52992 76.7131 3.556 76.7392 3.59946V14.4654C76.7479 14.5262 76.774 14.5523 76.8348 14.5523H78.3474C78.4082 14.5523 78.4343 14.5262 78.4343 14.4654V3.62554C78.4343 3.56469 78.4604 3.52992 78.5212 3.52992H81.9549C82.0157 3.52992 82.0505 3.50384 82.0505 3.443V2.10431C82.0418 2.04346 82.0157 2.01739 81.9549 2.01739H73.2186C73.1578 2.01739 73.1317 2.04346 73.1317 2.10431V3.443Z"/>
<path d="M84.594 8.26747C84.594 10.006 85.2894 11.562 86.4108 12.7008C87.5495 13.8395 89.1142 14.5523 90.818 14.5523C94.2951 14.5523 97.0681 11.7185 97.0681 8.26747C97.0681 4.85122 94.2951 2 90.818 2C89.1142 2 87.5495 2.7128 86.4108 3.85155C85.2894 4.9903 84.594 6.56369 84.594 8.26747ZM85.1242 8.26747C85.1068 5.13808 87.6886 2.53026 90.818 2.53895C93.9647 2.53026 96.5204 5.13808 96.5378 8.26747C96.5378 9.83216 95.8858 11.2838 94.8514 12.3183C93.817 13.3527 92.3827 14.0047 90.818 14.0047C87.6712 14.0047 85.1242 11.4142 85.1242 8.26747ZM87.706 12.6138C87.706 12.6486 87.7234 12.666 87.7581 12.666H88.5057C88.5492 12.666 88.5752 12.6486 88.5752 12.6138V8.79772C88.5752 8.75426 88.5926 8.72818 88.6274 8.72818H91.4612C91.4873 8.72818 91.5047 8.75426 91.5308 8.79772L93.2606 12.6138C93.2606 12.6486 93.2867 12.666 93.3476 12.666H94.0778C94.1125 12.666 94.1299 12.6486 94.1299 12.6138C93.8604 11.9967 93.5649 11.3447 93.2519 10.6754C92.939 10.006 92.6521 9.36275 92.3914 8.74557C92.3566 8.7021 92.374 8.66733 92.4435 8.64126C92.939 8.49348 93.3476 8.21531 93.6605 7.78937C93.9734 7.36342 94.1299 6.86794 94.1299 6.3116C94.1299 5.02507 93.1302 3.90371 91.8003 3.90371H87.7581C87.7234 3.90371 87.706 3.9211 87.706 3.95587V12.6138ZM88.5752 4.70344C88.5752 4.66867 88.5926 4.65129 88.6274 4.65129H91.8003C92.6 4.65129 93.2606 5.43363 93.2606 6.3116C93.2606 7.17218 92.6 7.98061 91.8003 7.98061H88.6274C88.5926 7.98061 88.5752 7.96322 88.5752 7.92845V4.70344Z"/>
</mask>
<path d="M51 35.7939C51 35.8548 51.0261 35.8808 51.0869 35.8808H52.5995C52.6603 35.8808 52.6951 35.8548 52.6951 35.7939V23.4328C52.6864 23.372 52.6603 23.3459 52.5995 23.3459H51.0869C51.0261 23.3459 51 23.372 51 23.4328V35.7939Z" fill="white"/>
<path d="M54.9204 29.6134C54.9204 33.4121 56.6329 36.0547 60.5446 36.0547C61.4748 36.0547 62.2571 35.8982 62.9091 35.594C63.561 35.2897 64.1 34.9246 64.5085 34.4987C64.9171 34.0727 65.2126 33.6294 65.3952 33.1774C65.5777 32.7254 65.6733 32.3516 65.6733 32.056C65.6733 31.9952 65.6473 31.9604 65.5864 31.9604H64.0217C63.9435 31.9691 63.9 31.9952 63.8913 32.056C63.6132 33.0122 62.6657 34.5422 60.5446 34.5422C59.3016 34.5422 58.3454 34.1075 57.6847 33.2382C57.0328 32.3603 56.7024 31.152 56.7024 29.6134C56.7024 28.0747 57.0328 26.8665 57.6847 25.9972C58.3454 25.1192 59.3016 24.6846 60.5446 24.6846C61.7182 24.6846 62.4831 25.1192 62.996 25.6408C63.5089 26.1623 63.7523 26.7969 63.8913 27.1794C63.9174 27.2402 63.9609 27.2663 64.0217 27.2663H65.5864C65.6473 27.2663 65.6733 27.2402 65.6733 27.1794C65.6733 26.9273 65.5864 26.5796 65.4126 26.1363C65.2474 25.6929 64.9605 25.2496 64.5607 24.8063C64.1695 24.3629 63.6392 23.9805 62.9873 23.6588C62.3353 23.3372 61.5182 23.172 60.5446 23.172C56.9719 23.172 54.9204 25.8581 54.9204 29.6134Z" fill="white"/>
<path d="M67.5423 35.7939C67.5423 35.8548 67.5684 35.8808 67.6292 35.8808H69.1418C69.2026 35.8808 69.2287 35.8548 69.2287 35.7939V30.9868C69.2287 30.926 69.2548 30.8999 69.3156 30.8999H73.1839C75.1224 30.8999 76.8174 29.2657 76.8174 27.1533C76.8174 25.0323 75.1224 23.3459 73.1839 23.3459H67.6292C67.5684 23.3459 67.5423 23.372 67.5423 23.4328V35.7939ZM69.2287 24.9541C69.2287 24.8932 69.2548 24.8584 69.3156 24.8584H72.9666C74.0792 24.8584 75.1224 25.9276 75.1224 27.1533C75.1224 28.3877 74.0792 29.3787 72.9666 29.3787H69.3156C69.2548 29.3787 69.2287 29.3526 69.2287 29.2917V24.9541Z" fill="white"/>
<path d="M78.5212 35.7939C78.5299 35.8548 78.556 35.8808 78.6168 35.8808H80.1294C80.1902 35.8808 80.2163 35.8548 80.2163 35.7939V23.4328C80.2163 23.372 80.1902 23.3459 80.1294 23.3459H78.6168C78.556 23.3459 78.5212 23.372 78.5212 23.4328V35.7939Z" fill="white"/>
<path d="M82.233 33.2122C82.233 34.0641 82.5286 34.7508 83.1197 35.2723C83.7108 35.7939 84.6061 36.0547 85.8057 36.0547C86.9619 36.0547 88.1528 35.4462 88.5874 35.0116C88.6309 34.9681 88.7004 34.9681 88.7265 35.0637L88.909 35.7939C88.9351 35.8548 88.9612 35.8808 88.996 35.8808H90.3347C90.3955 35.8808 90.4216 35.8548 90.4216 35.7939V29.9872C90.4216 28.9006 90.0652 28.0748 89.3524 27.5271C88.6396 26.9708 87.666 26.6926 86.4316 26.6926C84.4149 26.6926 82.5547 27.7357 82.5547 29.8307C82.5547 29.8915 82.5807 29.9176 82.6416 29.9176H84.1715C84.2324 29.9176 84.2584 29.8915 84.2584 29.8307C84.2584 29.3787 84.4236 28.9962 84.7626 28.6832C85.1016 28.3616 85.658 28.2051 86.4316 28.2051C88.5526 28.2051 88.7265 29.2222 88.7265 29.9524C88.7265 30.1175 88.7004 30.2566 88.657 30.3609C88.6135 30.4566 88.4396 30.5087 88.1441 30.5087H86.1448C83.5195 30.5087 82.233 31.6649 82.233 33.2122ZM83.9194 33.2122C83.9194 32.595 84.2497 31.9343 86.1448 31.8387H88.6396C88.7004 31.8387 88.7265 31.8648 88.7265 31.9256V32.1777C88.683 33.2643 87.9615 34.5422 85.7884 34.5422C84.3801 34.5422 83.9194 33.8641 83.9194 33.2122Z" fill="white"/>
<path d="M92.4122 35.7939C92.4122 35.8548 92.4383 35.8808 92.4991 35.8808H94.0117C94.0725 35.8808 94.0986 35.8548 94.0986 35.7939V30.8999C94.0986 29.5091 94.9505 28.2051 96.4543 28.2051C98.2103 28.2051 98.8188 29.5612 98.8188 30.8999V35.7939C98.8188 35.8548 98.8449 35.8808 98.9057 35.8808H100.418C100.479 35.8808 100.514 35.8548 100.514 35.7939V30.8999C100.514 28.5702 99.2099 26.6926 96.6282 26.6926C96.0284 26.6926 95.5329 26.8056 95.1504 27.0403C94.7766 27.275 94.4898 27.5184 94.2985 27.7792C94.2551 27.8227 94.1421 27.8748 94.0986 27.7618L93.9248 26.9621C93.8987 26.9012 93.8726 26.8752 93.8378 26.8752H92.4991C92.4383 26.8752 92.4122 26.9012 92.4122 26.9621V35.7939Z" fill="white"/>
<path d="M101.948 31.378C101.948 34.1597 103.6 36.0547 106.268 36.0547C107.277 36.0547 108.146 35.82 108.876 35.3419C109.606 34.8638 110.093 34.1771 110.328 33.2991C110.337 33.2382 110.311 33.2122 110.241 33.2122H108.659C108.598 33.2122 108.555 33.2382 108.529 33.2991C108.346 33.6555 108.077 33.951 107.738 34.1857C107.399 34.4205 106.912 34.5422 106.268 34.5422C104.695 34.5422 103.739 33.3686 103.739 32.0734C103.748 32.0126 103.774 31.9778 103.834 31.9778H110.476C110.511 31.9778 110.537 31.9517 110.563 31.8909C110.597 31.7518 110.615 31.5779 110.615 31.378C110.615 28.605 109.033 26.6926 106.268 26.6926C103.495 26.6926 101.948 28.5702 101.948 31.378ZM103.739 30.5609C103.739 29.7264 104.547 28.2051 106.268 28.2051C108.033 28.2051 108.763 29.5438 108.763 30.5609C108.763 30.6217 108.737 30.6478 108.676 30.6478H103.834C103.774 30.6478 103.739 30.6217 103.739 30.5609Z" fill="white"/>
<path d="M111.397 28.1182C111.397 28.1791 111.423 28.2051 111.484 28.2051H113.066C113.127 28.2138 113.153 28.2399 113.153 28.3008V33.7772C113.153 34.5074 113.353 35.0463 113.762 35.394C114.144 35.7157 114.674 35.8808 115.352 35.8808H116.856C116.917 35.8808 116.952 35.8548 116.952 35.7939V34.4552C116.943 34.3944 116.917 34.3683 116.856 34.3683H115.813C115.092 34.3683 114.848 34.0293 114.848 33.4816V28.3008C114.848 28.2399 114.874 28.2051 114.935 28.2051H116.856C116.917 28.2051 116.952 28.1791 116.952 28.1182V26.9621C116.943 26.9012 116.917 26.8752 116.856 26.8752H114.935C114.874 26.8665 114.848 26.8404 114.848 26.7795V24.3803C114.848 24.3195 114.822 24.2934 114.761 24.2934H113.249C113.188 24.2934 113.153 24.3195 113.153 24.3803V26.7795C113.153 26.8404 113.127 26.8752 113.066 26.8752H111.484C111.423 26.8752 111.397 26.9012 111.397 26.9621V28.1182Z" fill="white"/>
<path d="M118.957 32.9253C118.957 34.6378 120.269 36.0547 122.982 36.0547C125.198 36.0547 126.893 35.2463 126.893 33.1948C126.893 32.6211 126.772 32.169 126.528 31.8387C126.285 31.5084 125.972 31.2563 125.598 31.0737C124.859 30.7173 123.86 30.6217 122.982 30.5087C122.078 30.3436 120.808 30.3783 120.808 29.3439C120.808 29.0744 120.956 28.8136 121.26 28.5702C121.565 28.3268 122.051 28.2051 122.729 28.2051C124.181 28.2051 124.955 28.831 124.955 29.8307C124.955 29.8915 124.981 29.9176 125.042 29.9176H126.572C126.624 29.9176 126.65 29.8915 126.65 29.8307C126.65 27.7357 124.903 26.6926 122.729 26.6926C120.522 26.6926 119.113 27.8922 119.113 29.3439C119.113 29.9089 119.235 30.3522 119.478 30.6739C119.722 30.9955 120.026 31.2563 120.4 31.4388C121.156 31.8126 122.121 31.9256 122.982 32.0213C123.738 32.1169 125.207 32.1777 125.207 33.1948C125.207 34.3422 123.886 34.5422 122.982 34.5422C122.269 34.5422 121.704 34.3857 121.278 34.0727C120.852 33.7598 120.643 33.3773 120.643 32.9253C120.643 32.8645 120.608 32.8384 120.539 32.8384H119.044C118.983 32.8384 118.957 32.8645 118.957 32.9253Z" fill="white"/>
<path d="M51 14.4654C51 14.5262 51.0261 14.5523 51.0869 14.5523H52.5995C52.6603 14.5523 52.6951 14.5262 52.6951 14.4654V3.7994C52.6951 3.68639 52.8255 3.69508 52.8689 3.76463L58.2671 14.4654C58.3019 14.5262 58.3454 14.5523 58.4062 14.5523H61.0227C61.0836 14.5523 61.1097 14.5262 61.1097 14.4654V2.10431C61.1097 2.04346 61.0836 2.01739 61.0227 2.01739H59.5102C59.4493 2.01739 59.4233 2.04346 59.4233 2.10431V12.7703C59.4233 12.8833 59.2842 12.9007 59.2407 12.7877L53.8512 2.10431C53.8078 2.04346 53.7643 2.01739 53.7208 2.01739H51.0869C51.0261 2.01739 51 2.04346 51 2.10431V14.4654Z" fill="white"/>
<path d="M63.448 14.4654C63.4567 14.5262 63.4828 14.5523 63.5436 14.5523H65.0562C65.117 14.5523 65.1431 14.5262 65.1431 14.4654V8.9455C65.1431 8.88465 65.1692 8.85857 65.23 8.85857H71.3758C71.4366 8.84988 71.4627 8.8238 71.4627 8.76295V7.43296C71.4627 7.37212 71.4366 7.34604 71.3758 7.34604H65.23C65.1692 7.33734 65.1431 7.31127 65.1431 7.25042V3.62554C65.1431 3.56469 65.1692 3.52992 65.23 3.52992H72.106C72.1668 3.52992 72.1929 3.50384 72.1929 3.443V2.10431C72.1929 2.04346 72.1668 2.01739 72.106 2.01739H63.5436C63.4828 2.01739 63.448 2.04346 63.448 2.10431V14.4654Z" fill="white"/>
<path d="M73.1317 3.443C73.1317 3.50384 73.1578 3.52992 73.2186 3.52992H76.6523C76.6871 3.52992 76.7131 3.556 76.7392 3.59946V14.4654C76.7479 14.5262 76.774 14.5523 76.8348 14.5523H78.3474C78.4082 14.5523 78.4343 14.5262 78.4343 14.4654V3.62554C78.4343 3.56469 78.4604 3.52992 78.5212 3.52992H81.9549C82.0157 3.52992 82.0505 3.50384 82.0505 3.443V2.10431C82.0418 2.04346 82.0157 2.01739 81.9549 2.01739H73.2186C73.1578 2.01739 73.1317 2.04346 73.1317 2.10431V3.443Z" fill="white"/>
<path d="M84.594 8.26747C84.594 10.006 85.2894 11.562 86.4108 12.7008C87.5495 13.8395 89.1142 14.5523 90.818 14.5523C94.2951 14.5523 97.0681 11.7185 97.0681 8.26747C97.0681 4.85122 94.2951 2 90.818 2C89.1142 2 87.5495 2.7128 86.4108 3.85155C85.2894 4.9903 84.594 6.56369 84.594 8.26747ZM85.1242 8.26747C85.1068 5.13808 87.6886 2.53026 90.818 2.53895C93.9647 2.53026 96.5204 5.13808 96.5378 8.26747C96.5378 9.83216 95.8858 11.2838 94.8514 12.3183C93.817 13.3527 92.3827 14.0047 90.818 14.0047C87.6712 14.0047 85.1242 11.4142 85.1242 8.26747ZM87.706 12.6138C87.706 12.6486 87.7234 12.666 87.7581 12.666H88.5057C88.5492 12.666 88.5752 12.6486 88.5752 12.6138V8.79772C88.5752 8.75426 88.5926 8.72818 88.6274 8.72818H91.4612C91.4873 8.72818 91.5047 8.75426 91.5308 8.79772L93.2606 12.6138C93.2606 12.6486 93.2867 12.666 93.3476 12.666H94.0778C94.1125 12.666 94.1299 12.6486 94.1299 12.6138C93.8604 11.9967 93.5649 11.3447 93.2519 10.6754C92.939 10.006 92.6521 9.36275 92.3914 8.74557C92.3566 8.7021 92.374 8.66733 92.4435 8.64126C92.939 8.49348 93.3476 8.21531 93.6605 7.78937C93.9734 7.36342 94.1299 6.86794 94.1299 6.3116C94.1299 5.02507 93.1302 3.90371 91.8003 3.90371H87.7581C87.7234 3.90371 87.706 3.9211 87.706 3.95587V12.6138ZM88.5752 4.70344C88.5752 4.66867 88.5926 4.65129 88.6274 4.65129H91.8003C92.6 4.65129 93.2606 5.43363 93.2606 6.3116C93.2606 7.17218 92.6 7.98061 91.8003 7.98061H88.6274C88.5926 7.98061 88.5752 7.96322 88.5752 7.92845V4.70344Z" fill="white"/>
<path d="M51 35.7939C51 35.8548 51.0261 35.8808 51.0869 35.8808H52.5995C52.6603 35.8808 52.6951 35.8548 52.6951 35.7939V23.4328C52.6864 23.372 52.6603 23.3459 52.5995 23.3459H51.0869C51.0261 23.3459 51 23.372 51 23.4328V35.7939Z" stroke="white" stroke-width="0.356055" mask="url(#path-2-outside-1_302_3)"/>
<path d="M54.9204 29.6134C54.9204 33.4121 56.6329 36.0547 60.5446 36.0547C61.4748 36.0547 62.2571 35.8982 62.9091 35.594C63.561 35.2897 64.1 34.9246 64.5085 34.4987C64.9171 34.0727 65.2126 33.6294 65.3952 33.1774C65.5777 32.7254 65.6733 32.3516 65.6733 32.056C65.6733 31.9952 65.6473 31.9604 65.5864 31.9604H64.0217C63.9435 31.9691 63.9 31.9952 63.8913 32.056C63.6132 33.0122 62.6657 34.5422 60.5446 34.5422C59.3016 34.5422 58.3454 34.1075 57.6847 33.2382C57.0328 32.3603 56.7024 31.152 56.7024 29.6134C56.7024 28.0747 57.0328 26.8665 57.6847 25.9972C58.3454 25.1192 59.3016 24.6846 60.5446 24.6846C61.7182 24.6846 62.4831 25.1192 62.996 25.6408C63.5089 26.1623 63.7523 26.7969 63.8913 27.1794C63.9174 27.2402 63.9609 27.2663 64.0217 27.2663H65.5864C65.6473 27.2663 65.6733 27.2402 65.6733 27.1794C65.6733 26.9273 65.5864 26.5796 65.4126 26.1363C65.2474 25.6929 64.9605 25.2496 64.5607 24.8063C64.1695 24.3629 63.6392 23.9805 62.9873 23.6588C62.3353 23.3372 61.5182 23.172 60.5446 23.172C56.9719 23.172 54.9204 25.8581 54.9204 29.6134Z" stroke="white" stroke-width="0.356055" mask="url(#path-2-outside-1_302_3)"/>
<path d="M67.5423 35.7939C67.5423 35.8548 67.5684 35.8808 67.6292 35.8808H69.1418C69.2026 35.8808 69.2287 35.8548 69.2287 35.7939V30.9868C69.2287 30.926 69.2548 30.8999 69.3156 30.8999H73.1839C75.1224 30.8999 76.8174 29.2657 76.8174 27.1533C76.8174 25.0323 75.1224 23.3459 73.1839 23.3459H67.6292C67.5684 23.3459 67.5423 23.372 67.5423 23.4328V35.7939ZM69.2287 24.9541C69.2287 24.8932 69.2548 24.8584 69.3156 24.8584H72.9666C74.0792 24.8584 75.1224 25.9276 75.1224 27.1533C75.1224 28.3877 74.0792 29.3787 72.9666 29.3787H69.3156C69.2548 29.3787 69.2287 29.3526 69.2287 29.2917V24.9541Z" stroke="white" stroke-width="0.356055" mask="url(#path-2-outside-1_302_3)"/>
<path d="M78.5212 35.7939C78.5299 35.8548 78.556 35.8808 78.6168 35.8808H80.1294C80.1902 35.8808 80.2163 35.8548 80.2163 35.7939V23.4328C80.2163 23.372 80.1902 23.3459 80.1294 23.3459H78.6168C78.556 23.3459 78.5212 23.372 78.5212 23.4328V35.7939Z" stroke="white" stroke-width="0.356055" mask="url(#path-2-outside-1_302_3)"/>
<path d="M82.233 33.2122C82.233 34.0641 82.5286 34.7508 83.1197 35.2723C83.7108 35.7939 84.6061 36.0547 85.8057 36.0547C86.9619 36.0547 88.1528 35.4462 88.5874 35.0116C88.6309 34.9681 88.7004 34.9681 88.7265 35.0637L88.909 35.7939C88.9351 35.8548 88.9612 35.8808 88.996 35.8808H90.3347C90.3955 35.8808 90.4216 35.8548 90.4216 35.7939V29.9872C90.4216 28.9006 90.0652 28.0748 89.3524 27.5271C88.6396 26.9708 87.666 26.6926 86.4316 26.6926C84.4149 26.6926 82.5547 27.7357 82.5547 29.8307C82.5547 29.8915 82.5807 29.9176 82.6416 29.9176H84.1715C84.2324 29.9176 84.2584 29.8915 84.2584 29.8307C84.2584 29.3787 84.4236 28.9962 84.7626 28.6832C85.1016 28.3616 85.658 28.2051 86.4316 28.2051C88.5526 28.2051 88.7265 29.2222 88.7265 29.9524C88.7265 30.1175 88.7004 30.2566 88.657 30.3609C88.6135 30.4566 88.4396 30.5087 88.1441 30.5087H86.1448C83.5195 30.5087 82.233 31.6649 82.233 33.2122ZM83.9194 33.2122C83.9194 32.595 84.2497 31.9343 86.1448 31.8387H88.6396C88.7004 31.8387 88.7265 31.8648 88.7265 31.9256V32.1777C88.683 33.2643 87.9615 34.5422 85.7884 34.5422C84.3801 34.5422 83.9194 33.8641 83.9194 33.2122Z" stroke="white" stroke-width="0.356055" mask="url(#path-2-outside-1_302_3)"/>
<path d="M92.4122 35.7939C92.4122 35.8548 92.4383 35.8808 92.4991 35.8808H94.0117C94.0725 35.8808 94.0986 35.8548 94.0986 35.7939V30.8999C94.0986 29.5091 94.9505 28.2051 96.4543 28.2051C98.2103 28.2051 98.8188 29.5612 98.8188 30.8999V35.7939C98.8188 35.8548 98.8449 35.8808 98.9057 35.8808H100.418C100.479 35.8808 100.514 35.8548 100.514 35.7939V30.8999C100.514 28.5702 99.2099 26.6926 96.6282 26.6926C96.0284 26.6926 95.5329 26.8056 95.1504 27.0403C94.7766 27.275 94.4898 27.5184 94.2985 27.7792C94.2551 27.8227 94.1421 27.8748 94.0986 27.7618L93.9248 26.9621C93.8987 26.9012 93.8726 26.8752 93.8378 26.8752H92.4991C92.4383 26.8752 92.4122 26.9012 92.4122 26.9621V35.7939Z" stroke="white" stroke-width="0.356055" mask="url(#path-2-outside-1_302_3)"/>
<path d="M101.948 31.378C101.948 34.1597 103.6 36.0547 106.268 36.0547C107.277 36.0547 108.146 35.82 108.876 35.3419C109.606 34.8638 110.093 34.1771 110.328 33.2991C110.337 33.2382 110.311 33.2122 110.241 33.2122H108.659C108.598 33.2122 108.555 33.2382 108.529 33.2991C108.346 33.6555 108.077 33.951 107.738 34.1857C107.399 34.4205 106.912 34.5422 106.268 34.5422C104.695 34.5422 103.739 33.3686 103.739 32.0734C103.748 32.0126 103.774 31.9778 103.834 31.9778H110.476C110.511 31.9778 110.537 31.9517 110.563 31.8909C110.597 31.7518 110.615 31.5779 110.615 31.378C110.615 28.605 109.033 26.6926 106.268 26.6926C103.495 26.6926 101.948 28.5702 101.948 31.378ZM103.739 30.5609C103.739 29.7264 104.547 28.2051 106.268 28.2051C108.033 28.2051 108.763 29.5438 108.763 30.5609C108.763 30.6217 108.737 30.6478 108.676 30.6478H103.834C103.774 30.6478 103.739 30.6217 103.739 30.5609Z" stroke="white" stroke-width="0.356055" mask="url(#path-2-outside-1_302_3)"/>
<path d="M111.397 28.1182C111.397 28.1791 111.423 28.2051 111.484 28.2051H113.066C113.127 28.2138 113.153 28.2399 113.153 28.3008V33.7772C113.153 34.5074 113.353 35.0463 113.762 35.394C114.144 35.7157 114.674 35.8808 115.352 35.8808H116.856C116.917 35.8808 116.952 35.8548 116.952 35.7939V34.4552C116.943 34.3944 116.917 34.3683 116.856 34.3683H115.813C115.092 34.3683 114.848 34.0293 114.848 33.4816V28.3008C114.848 28.2399 114.874 28.2051 114.935 28.2051H116.856C116.917 28.2051 116.952 28.1791 116.952 28.1182V26.9621C116.943 26.9012 116.917 26.8752 116.856 26.8752H114.935C114.874 26.8665 114.848 26.8404 114.848 26.7795V24.3803C114.848 24.3195 114.822 24.2934 114.761 24.2934H113.249C113.188 24.2934 113.153 24.3195 113.153 24.3803V26.7795C113.153 26.8404 113.127 26.8752 113.066 26.8752H111.484C111.423 26.8752 111.397 26.9012 111.397 26.9621V28.1182Z" stroke="white" stroke-width="0.356055" mask="url(#path-2-outside-1_302_3)"/>
<path d="M118.957 32.9253C118.957 34.6378 120.269 36.0547 122.982 36.0547C125.198 36.0547 126.893 35.2463 126.893 33.1948C126.893 32.6211 126.772 32.169 126.528 31.8387C126.285 31.5084 125.972 31.2563 125.598 31.0737C124.859 30.7173 123.86 30.6217 122.982 30.5087C122.078 30.3436 120.808 30.3783 120.808 29.3439C120.808 29.0744 120.956 28.8136 121.26 28.5702C121.565 28.3268 122.051 28.2051 122.729 28.2051C124.181 28.2051 124.955 28.831 124.955 29.8307C124.955 29.8915 124.981 29.9176 125.042 29.9176H126.572C126.624 29.9176 126.65 29.8915 126.65 29.8307C126.65 27.7357 124.903 26.6926 122.729 26.6926C120.522 26.6926 119.113 27.8922 119.113 29.3439C119.113 29.9089 119.235 30.3522 119.478 30.6739C119.722 30.9955 120.026 31.2563 120.4 31.4388C121.156 31.8126 122.121 31.9256 122.982 32.0213C123.738 32.1169 125.207 32.1777 125.207 33.1948C125.207 34.3422 123.886 34.5422 122.982 34.5422C122.269 34.5422 121.704 34.3857 121.278 34.0727C120.852 33.7598 120.643 33.3773 120.643 32.9253C120.643 32.8645 120.608 32.8384 120.539 32.8384H119.044C118.983 32.8384 118.957 32.8645 118.957 32.9253Z" stroke="white" stroke-width="0.356055" mask="url(#path-2-outside-1_302_3)"/>
<path d="M51 14.4654C51 14.5262 51.0261 14.5523 51.0869 14.5523H52.5995C52.6603 14.5523 52.6951 14.5262 52.6951 14.4654V3.7994C52.6951 3.68639 52.8255 3.69508 52.8689 3.76463L58.2671 14.4654C58.3019 14.5262 58.3454 14.5523 58.4062 14.5523H61.0227C61.0836 14.5523 61.1097 14.5262 61.1097 14.4654V2.10431C61.1097 2.04346 61.0836 2.01739 61.0227 2.01739H59.5102C59.4493 2.01739 59.4233 2.04346 59.4233 2.10431V12.7703C59.4233 12.8833 59.2842 12.9007 59.2407 12.7877L53.8512 2.10431C53.8078 2.04346 53.7643 2.01739 53.7208 2.01739H51.0869C51.0261 2.01739 51 2.04346 51 2.10431V14.4654Z" stroke="white" stroke-width="0.356055" mask="url(#path-2-outside-1_302_3)"/>
<path d="M63.448 14.4654C63.4567 14.5262 63.4828 14.5523 63.5436 14.5523H65.0562C65.117 14.5523 65.1431 14.5262 65.1431 14.4654V8.9455C65.1431 8.88465 65.1692 8.85857 65.23 8.85857H71.3758C71.4366 8.84988 71.4627 8.8238 71.4627 8.76295V7.43296C71.4627 7.37212 71.4366 7.34604 71.3758 7.34604H65.23C65.1692 7.33734 65.1431 7.31127 65.1431 7.25042V3.62554C65.1431 3.56469 65.1692 3.52992 65.23 3.52992H72.106C72.1668 3.52992 72.1929 3.50384 72.1929 3.443V2.10431C72.1929 2.04346 72.1668 2.01739 72.106 2.01739H63.5436C63.4828 2.01739 63.448 2.04346 63.448 2.10431V14.4654Z" stroke="white" stroke-width="0.356055" mask="url(#path-2-outside-1_302_3)"/>
<path d="M73.1317 3.443C73.1317 3.50384 73.1578 3.52992 73.2186 3.52992H76.6523C76.6871 3.52992 76.7131 3.556 76.7392 3.59946V14.4654C76.7479 14.5262 76.774 14.5523 76.8348 14.5523H78.3474C78.4082 14.5523 78.4343 14.5262 78.4343 14.4654V3.62554C78.4343 3.56469 78.4604 3.52992 78.5212 3.52992H81.9549C82.0157 3.52992 82.0505 3.50384 82.0505 3.443V2.10431C82.0418 2.04346 82.0157 2.01739 81.9549 2.01739H73.2186C73.1578 2.01739 73.1317 2.04346 73.1317 2.10431V3.443Z" stroke="white" stroke-width="0.356055" mask="url(#path-2-outside-1_302_3)"/>
<path d="M84.594 8.26747C84.594 10.006 85.2894 11.562 86.4108 12.7008C87.5495 13.8395 89.1142 14.5523 90.818 14.5523C94.2951 14.5523 97.0681 11.7185 97.0681 8.26747C97.0681 4.85122 94.2951 2 90.818 2C89.1142 2 87.5495 2.7128 86.4108 3.85155C85.2894 4.9903 84.594 6.56369 84.594 8.26747ZM85.1242 8.26747C85.1068 5.13808 87.6886 2.53026 90.818 2.53895C93.9647 2.53026 96.5204 5.13808 96.5378 8.26747C96.5378 9.83216 95.8858 11.2838 94.8514 12.3183C93.817 13.3527 92.3827 14.0047 90.818 14.0047C87.6712 14.0047 85.1242 11.4142 85.1242 8.26747ZM87.706 12.6138C87.706 12.6486 87.7234 12.666 87.7581 12.666H88.5057C88.5492 12.666 88.5752 12.6486 88.5752 12.6138V8.79772C88.5752 8.75426 88.5926 8.72818 88.6274 8.72818H91.4612C91.4873 8.72818 91.5047 8.75426 91.5308 8.79772L93.2606 12.6138C93.2606 12.6486 93.2867 12.666 93.3476 12.666H94.0778C94.1125 12.666 94.1299 12.6486 94.1299 12.6138C93.8604 11.9967 93.5649 11.3447 93.2519 10.6754C92.939 10.006 92.6521 9.36275 92.3914 8.74557C92.3566 8.7021 92.374 8.66733 92.4435 8.64126C92.939 8.49348 93.3476 8.21531 93.6605 7.78937C93.9734 7.36342 94.1299 6.86794 94.1299 6.3116C94.1299 5.02507 93.1302 3.90371 91.8003 3.90371H87.7581C87.7234 3.90371 87.706 3.9211 87.706 3.95587V12.6138ZM88.5752 4.70344C88.5752 4.66867 88.5926 4.65129 88.6274 4.65129H91.8003C92.6 4.65129 93.2606 5.43363 93.2606 6.3116C93.2606 7.17218 92.6 7.98061 91.8003 7.98061H88.6274C88.5926 7.98061 88.5752 7.96322 88.5752 7.92845V4.70344Z" stroke="white" stroke-width="0.356055" mask="url(#path-2-outside-1_302_3)"/>
</svg>
